<?xml version="1.0" encoding="UTF-8"?>
<svg version="1.1" xmlns="http://www.w3.org/2000/svg" width="1200" height="1200">
<path d="M0 0 C396 0 792 0 1200 0 C1200 396 1200 792 1200 1200 C804 1200 408 1200 0 1200 C0 804 0 408 0 0 Z " fill="#FEFEFE" transform="translate(0,0)"/>
<path d="M0 0 C2.3581543 1.16064453 2.3581543 1.16064453 4.82421875 2.6328125 C5.75669434 3.18380615 6.68916992 3.7347998 7.64990234 4.30249023 C8.65230957 4.90391846 9.6547168 5.50534668 10.6875 6.125 C12.86025981 7.41086159 15.03345157 8.69599352 17.20703125 9.98046875 C18.32932129 10.6461084 19.45161133 11.31174805 20.60791016 11.99755859 C26.00694148 15.18475126 31.4405284 18.31124675 36.875 21.4375 C39.05994368 22.69653156 41.24483925 23.95564661 43.4296875 25.21484375 C45.05729004 26.15239502 45.05729004 26.15239502 46.71777344 27.10888672 C52.14659942 30.23680148 57.57319281 33.36858448 63 36.5 C65.16665583 37.75001879 67.3333225 39.00001878 69.5 40.25 C108.5 62.75 108.5 62.75 111.74951172 64.62475586 C113.91776264 65.8756448 116.08605697 67.12645852 118.25439453 68.37719727 C123.64717915 71.48798335 129.03922093 74.60004238 134.4296875 77.71484375 C145.05386003 83.85198331 155.68820637 89.9701907 166.34631348 96.04815674 C176.61847237 101.90612835 186.86029113 107.81289848 197.06738281 113.78369141 C207.59111319 119.93792989 218.1539592 126.02379087 228.71777344 132.10888672 C234.14659942 135.23680148 239.57319281 138.36858448 245 141.5 C247.16665583 142.75001879 249.3333225 144.00001878 251.5 145.25 C281.83333333 162.75 312.16666667 180.25 342.5 197.75 C343.57266113 198.36883057 344.64532227 198.98766113 345.75048828 199.62524414 C347.91557071 200.87435518 350.08060982 202.12354129 352.24560547 203.37280273 C357.68615706 206.51202309 363.12747216 209.64990563 368.5703125 212.78515625 C379.57947155 219.12819791 390.58056625 225.48492744 401.5625 231.875 C402.59842285 232.47642822 403.6343457 233.07785645 404.70166016 233.69750977 C405.64702637 234.24850342 406.59239258 234.79949707 407.56640625 235.3671875 C408.81852905 236.09591064 408.81852905 236.09591064 410.09594727 236.83935547 C412 238 412 238 413 239 C413.11075215 241.55126 413.15574362 244.07599705 413.15936089 246.62827396 C413.16440948 247.44082715 413.16945808 248.25338034 413.17465967 249.09055635 C413.19050114 251.84870354 413.19909909 254.60682695 413.20773315 257.36500549 C413.21746657 259.34832276 413.22760528 261.33163807 413.23811734 263.31495136 C413.26573254 268.79279175 413.28678686 274.27064094 413.30663323 279.74851429 C413.32439596 284.44020653 413.34582332 289.13187936 413.36717294 293.82355643 C413.56517029 337.56317224 413.66942564 381.30328763 413.75161848 425.04326039 C413.76388914 431.55170883 413.77663188 438.06015633 413.78955078 444.56860352 C413.79096776 445.28778873 413.79238474 446.00697395 413.79384466 446.74795267 C413.84009654 470.06345483 413.93113296 493.37851014 414.04639695 516.69376524 C414.16463754 540.6546847 414.2405155 564.61536104 414.26198688 588.57657248 C414.26503259 591.96044654 414.26854837 595.34431998 414.27234268 598.72819328 C414.27307268 599.39418593 414.27380268 600.06017858 414.2745548 600.74635282 C414.28672162 610.80461494 414.3359472 620.86227009 414.405056 630.92028999 C414.48332976 642.36219978 414.51801352 653.80316778 414.4950311 665.24534155 C414.4846986 671.08597754 414.49564217 676.92456663 414.56312943 682.76486588 C414.6244327 688.1109976 414.62588253 693.45366562 414.57947291 698.7999165 C414.57327652 700.7348012 414.58914622 702.66990688 414.62916015 704.60438771 C414.85881173 716.4052715 414.85881173 716.4052715 413 721 C409.07682611 725.00352951 405.17270454 726.822554 400 729 C397.77736493 730.20468495 395.62171637 731.49369264 393.44921875 732.7890625 C391.19637346 734.06957672 388.94243321 735.34816611 386.6875 736.625 C384.21390363 738.0309032 381.74154681 739.43897565 379.26953125 740.84765625 C378.65392334 741.19833664 378.03831543 741.54901703 377.40405273 741.9103241 C371.53835699 745.25562191 365.70300524 748.65199438 359.875 752.0625 C348.3713931 758.79228681 336.83076481 765.45655825 325.28222656 772.10888672 C319.85340058 775.23680148 314.42680719 778.36858448 309 781.5 C306.83334417 782.75001879 304.6666775 784.00001878 302.5 785.25 C300.89125 786.178125 300.89125 786.178125 299.25 787.125 C81.50000001 912.74999999 81.50000001 912.74999999 78.24951172 914.62524414 C76.08442929 915.87435518 73.91939018 917.12354129 71.75439453 918.37280273 C66.31384294 921.51202309 60.87252784 924.64990563 55.4296875 927.78515625 C45.7242547 933.37739604 36.02328553 938.97648171 26.35131836 944.62646484 C24.31412405 945.8160978 22.27590557 947.00397896 20.23657227 948.18994141 C15.99352754 950.65816684 11.7594626 953.13512076 7.56640625 955.6875 C6.91961914 956.07494385 6.27283203 956.4623877 5.60644531 956.86157227 C3.96742298 957.84458416 2.33676313 958.84150485 0.70703125 959.83984375 C-2.55432245 961.23756676 -3.63432877 960.95001276 -7 960 C-9.54174805 958.74755859 -9.54174805 958.74755859 -12.26171875 957.1484375 C-13.28458984 956.55224609 -14.30746094 955.95605469 -15.36132812 955.34179688 C-16.45896484 954.69275391 -17.55660156 954.04371094 -18.6875 953.375 C-19.84916922 952.69521082 -21.01128693 952.01618752 -22.17382812 951.33789062 C-24.58817446 949.92841697 -27.00055922 948.51567013 -29.41162109 947.10058594 C-34.92318625 943.86944454 -40.46302109 940.68731817 -46 937.5 C-48.1641845 936.25151354 -50.32824659 935.00281486 -52.4921875 933.75390625 C-56.85065388 931.23930564 -61.21012191 928.72645339 -65.5703125 926.21484375 C-77.0544882 919.59777108 -88.52196894 912.95366023 -99.96582031 906.26708984 C-110.52620282 900.10080946 -121.12126766 893.9950405 -131.71777344 887.89111328 C-137.14659942 884.76319852 -142.57319281 881.63141552 -148 878.5 C-150.16665583 877.24998121 -152.3333225 875.99998122 -154.5 874.75 C-176.16666667 862.25 -197.83333333 849.75 -219.5 837.25 C-220.57266113 836.63116943 -221.64532227 836.01233887 -222.75048828 835.37475586 C-224.91557071 834.12564482 -227.08060982 832.87645871 -229.24560547 831.62719727 C-234.68615706 828.48797691 -240.12747216 825.35009437 -245.5703125 822.21484375 C-257.0544882 815.59777108 -268.52196894 808.95366023 -279.96582031 802.26708984 C-290.52903161 796.09915772 -301.12711576 789.99210078 -311.7265625 783.88671875 C-314.9647516 782.0203162 -318.20139438 780.15126237 -321.4375 778.28125 C-332.6093905 771.82666269 -343.79417172 765.3954526 -355 759 C-372.89797967 748.78411553 -390.7493022 738.48802388 -408.5625 728.125 C-409.59858398 727.52349121 -410.63466797 726.92198242 -411.70214844 726.30224609 C-413.11995605 725.47587646 -413.11995605 725.47587646 -414.56640625 724.6328125 C-415.40115479 724.14699707 -416.23590332 723.66118164 -417.09594727 723.16064453 C-419 722 -419 722 -420 721 C-420.11075215 718.44874 -420.15574362 715.92400295 -420.15936089 713.37172604 C-420.16440948 712.55917285 -420.16945808 711.74661966 -420.17465967 710.90944365 C-420.19050114 708.15129646 -420.19909909 705.39317305 -420.20773315 702.63499451 C-420.21746657 700.65167724 -420.22760528 698.66836193 -420.23811734 696.68504864 C-420.26573254 691.20720825 -420.28678686 685.72935906 -420.30663323 680.25148571 C-420.32439596 675.55979347 -420.34582332 670.86812064 -420.36717294 666.17644357 C-420.56517029 622.43682776 -420.66942564 578.69671237 -420.75161848 534.95673961 C-420.76388914 528.44829117 -420.77663188 521.93984367 -420.78955078 515.43139648 C-420.79096776 514.71221127 -420.79238474 513.99302605 -420.79384466 513.25204733 C-420.84009654 489.93654517 -420.93113296 466.62148986 -421.04639695 443.30623476 C-421.16463754 419.3453153 -421.2405155 395.38463896 -421.26198688 371.42342752 C-421.26503259 368.03955346 -421.26854837 364.65568002 -421.27234268 361.27180672 C-421.27307268 360.60581407 -421.27380268 359.93982142 -421.2745548 359.25364718 C-421.28672162 349.19538506 -421.3359472 339.13772991 -421.405056 329.07971001 C-421.48332976 317.63780022 -421.51801352 306.19683222 -421.4950311 294.75465845 C-421.4846986 288.91402246 -421.49564217 283.07543337 -421.56312943 277.23513412 C-421.6244327 271.8890024 -421.62588253 266.54633438 -421.57947291 261.2000835 C-421.57327652 259.2651988 -421.58914622 257.33009312 -421.62916015 255.39561229 C-421.85884004 243.59327336 -421.85884004 243.59327336 -420 239 C-416.0761088 234.9975602 -412.17279405 233.17666303 -407 231 C-404.82503436 229.7746199 -402.66260389 228.52643417 -400.51953125 227.24609375 C-398.28500298 225.97454154 -396.04928614 224.70507618 -393.8125 223.4375 C-391.34182403 222.03234523 -388.87211894 220.62548727 -386.40234375 219.21875 C-385.78224426 218.86582382 -385.16214478 218.51289764 -384.52325439 218.14927673 C-378.29361915 214.60215944 -372.0824978 211.02320336 -365.875 207.4375 C-364.81128174 206.82318115 -363.74756348 206.2088623 -362.65161133 205.57592773 C-360.50690413 204.33707777 -358.3622912 203.09806459 -356.21777344 201.85888672 C-350.81329355 198.73675395 -345.40652588 195.61858796 -340 192.5 C-337.8333225 191.25001878 -335.66665583 190.00001879 -333.5 188.75 C-268.5 151.25 -268.5 151.25 -265.24951172 149.37475586 C-263.08442929 148.12564482 -260.91939018 146.87645871 -258.75439453 145.62719727 C-253.31384294 142.48797691 -247.87252784 139.35009437 -242.4296875 136.21484375 C-231.93767906 130.16944841 -221.45518324 124.10889781 -211 118 C-199.45270484 111.25298806 -187.87097973 104.56660682 -176.28222656 97.89111328 C-170.85340058 94.76319852 -165.42680719 91.63141552 -160 88.5 C-157.83334417 87.24998121 -155.6666775 85.99998122 -153.5 84.75 C-152.4275 84.13125 -151.355 83.5125 -150.25 82.875 C-88.5 47.25 -88.5 47.25 -85.24951172 45.37475586 C-83.08442929 44.12564482 -80.91939018 42.87645871 -78.75439453 41.62719727 C-73.31384294 38.48797691 -67.87252784 35.35009437 -62.4296875 32.21484375 C-52.7242547 26.62260396 -43.02328553 21.02351829 -33.35131836 15.37353516 C-31.31412405 14.1839022 -29.27590557 12.99602104 -27.23657227 11.81005859 C-22.99352754 9.34183316 -18.7594626 6.86487924 -14.56640625 4.3125 C-13.91961914 3.92505615 -13.27283203 3.5376123 -12.60644531 3.13842773 C-10.96742298 2.15541584 -9.33676313 1.15849515 -7.70703125 0.16015625 C-4.45611308 -1.23309439 -3.35341073 -0.93896744 0 0 Z " fill="#FEFEFE" transform="translate(604,120)"/>
<path d="M0 0 C2.3581543 1.16064453 2.3581543 1.16064453 4.82421875 2.6328125 C5.75669434 3.18380615 6.68916992 3.7347998 7.64990234 4.30249023 C8.65230957 4.90391846 9.6547168 5.50534668 10.6875 6.125 C12.86025981 7.41086159 15.03345157 8.69599352 17.20703125 9.98046875 C18.32932129 10.6461084 19.45161133 11.31174805 20.60791016 11.99755859 C26.00694148 15.18475126 31.4405284 18.31124675 36.875 21.4375 C39.05994368 22.69653156 41.24483925 23.95564661 43.4296875 25.21484375 C45.05729004 26.15239502 45.05729004 26.15239502 46.71777344 27.10888672 C52.14659942 30.23680148 57.57319281 33.36858448 63 36.5 C65.16665583 37.75001879 67.3333225 39.00001878 69.5 40.25 C108.5 62.75 108.5 62.75 111.74951172 64.62475586 C113.91776264 65.8756448 116.08605697 67.12645852 118.25439453 68.37719727 C123.64717915 71.48798335 129.03922093 74.60004238 134.4296875 77.71484375 C145.05386003 83.85198331 155.68820637 89.9701907 166.34631348 96.04815674 C176.61847237 101.90612835 186.86029113 107.81289848 197.06738281 113.78369141 C207.59111319 119.93792989 218.1539592 126.02379087 228.71777344 132.10888672 C234.14659942 135.23680148 239.57319281 138.36858448 245 141.5 C247.16665583 142.75001879 249.3333225 144.00001878 251.5 145.25 C281.83333333 162.75 312.16666667 180.25 342.5 197.75 C343.57266113 198.36883057 344.64532227 198.98766113 345.75048828 199.62524414 C347.91557071 200.87435518 350.08060982 202.12354129 352.24560547 203.37280273 C357.68615706 206.51202309 363.12747216 209.64990563 368.5703125 212.78515625 C379.57947155 219.12819791 390.58056625 225.48492744 401.5625 231.875 C402.59842285 232.47642822 403.6343457 233.07785645 404.70166016 233.69750977 C405.64702637 234.24850342 406.59239258 234.79949707 407.56640625 235.3671875 C408.81852905 236.09591064 408.81852905 236.09591064 410.09594727 236.83935547 C412 238 412 238 413 239 C413.11075215 241.55126 413.15574362 244.07599705 413.15936089 246.62827396 C413.16440948 247.44082715 413.16945808 248.25338034 413.17465967 249.09055635 C413.19050114 251.84870354 413.19909909 254.60682695 413.20773315 257.36500549 C413.21746657 259.34832276 413.22760528 261.33163807 413.23811734 263.31495136 C413.26573254 268.79279175 413.28678686 274.27064094 413.30663323 279.74851429 C413.32439596 284.44020653 413.34582332 289.13187936 413.36717294 293.82355643 C413.56517029 337.56317224 413.66942564 381.30328763 413.75161848 425.04326039 C413.76388914 431.55170883 413.77663188 438.06015633 413.78955078 444.56860352 C413.79096776 445.28778873 413.79238474 446.00697395 413.79384466 446.74795267 C413.84009654 470.06345483 413.93113296 493.37851014 414.04639695 516.69376524 C414.16463754 540.6546847 414.2405155 564.61536104 414.26198688 588.57657248 C414.26503259 591.96044654 414.26854837 595.34431998 414.27234268 598.72819328 C414.27307268 599.39418593 414.27380268 600.06017858 414.2745548 600.74635282 C414.28672162 610.80461494 414.3359472 620.86227009 414.405056 630.92028999 C414.48332976 642.36219978 414.51801352 653.80316778 414.4950311 665.24534155 C414.4846986 671.08597754 414.49564217 676.92456663 414.56312943 682.76486588 C414.6244327 688.1109976 414.62588253 693.45366562 414.57947291 698.7999165 C414.57327652 700.7348012 414.58914622 702.66990688 414.62916015 704.60438771 C414.85881173 716.4052715 414.85881173 716.4052715 413 721 C409.07682611 725.00352951 405.17270454 726.822554 400 729 C397.77736493 730.20468495 395.62171637 731.49369264 393.44921875 732.7890625 C391.19637346 734.06957672 388.94243321 735.34816611 386.6875 736.625 C384.21390363 738.0309032 381.74154681 739.43897565 379.26953125 740.84765625 C378.65392334 741.19833664 378.03831543 741.54901703 377.40405273 741.9103241 C371.53835699 745.25562191 365.70300524 748.65199438 359.875 752.0625 C348.3713931 758.79228681 336.83076481 765.45655825 325.28222656 772.10888672 C319.85340058 775.23680148 314.42680719 778.36858448 309 781.5 C306.83334417 782.75001879 304.6666775 784.00001878 302.5 785.25 C300.89125 786.178125 300.89125 786.178125 299.25 787.125 C81.50000001 912.74999999 81.50000001 912.74999999 78.24951172 914.62524414 C76.08442929 915.87435518 73.91939018 917.12354129 71.75439453 918.37280273 C66.31384294 921.51202309 60.87252784 924.64990563 55.4296875 927.78515625 C45.7242547 933.37739604 36.02328553 938.97648171 26.35131836 944.62646484 C24.31412405 945.8160978 22.27590557 947.00397896 20.23657227 948.18994141 C15.99352754 950.65816684 11.7594626 953.13512076 7.56640625 955.6875 C6.91961914 956.07494385 6.27283203 956.4623877 5.60644531 956.86157227 C3.96742298 957.84458416 2.33676313 958.84150485 0.70703125 959.83984375 C-2.55432245 961.23756676 -3.63432877 960.95001276 -7 960 C-9.54174805 958.74755859 -9.54174805 958.74755859 -12.26171875 957.1484375 C-13.28458984 956.55224609 -14.30746094 955.95605469 -15.36132812 955.34179688 C-16.45896484 954.69275391 -17.55660156 954.04371094 -18.6875 953.375 C-19.84916922 952.69521082 -21.01128693 952.01618752 -22.17382812 951.33789062 C-24.58817446 949.92841697 -27.00055922 948.51567013 -29.41162109 947.10058594 C-34.92318625 943.86944454 -40.46302109 940.68731817 -46 937.5 C-48.1641845 936.25151354 -50.32824659 935.00281486 -52.4921875 933.75390625 C-56.85065388 931.23930564 -61.21012191 928.72645339 -65.5703125 926.21484375 C-77.0544882 919.59777108 -88.52196894 912.95366023 -99.96582031 906.26708984 C-110.52620282 900.10080946 -121.12126766 893.9950405 -131.71777344 887.89111328 C-137.14659942 884.76319852 -142.57319281 881.63141552 -148 878.5 C-150.16665583 877.24998121 -152.3333225 875.99998122 -154.5 874.75 C-176.16666667 862.25 -197.83333333 849.75 -219.5 837.25 C-220.57266113 836.63116943 -221.64532227 836.01233887 -222.75048828 835.37475586 C-224.91557071 834.12564482 -227.08060982 832.87645871 -229.24560547 831.62719727 C-234.68615706 828.48797691 -240.12747216 825.35009437 -245.5703125 822.21484375 C-257.0544882 815.59777108 -268.52196894 808.95366023 -279.96582031 802.26708984 C-290.52903161 796.09915772 -301.12711576 789.99210078 -311.7265625 783.88671875 C-314.9647516 782.0203162 -318.20139438 780.15126237 -321.4375 778.28125 C-332.6093905 771.82666269 -343.79417172 765.3954526 -355 759 C-372.89797967 748.78411553 -390.7493022 738.48802388 -408.5625 728.125 C-409.59858398 727.52349121 -410.63466797 726.92198242 -411.70214844 726.30224609 C-413.11995605 725.47587646 -413.11995605 725.47587646 -414.56640625 724.6328125 C-415.40115479 724.14699707 -416.23590332 723.66118164 -417.09594727 723.16064453 C-419 722 -419 722 -420 721 C-420.11075215 718.44874 -420.15574362 715.92400295 -420.15936089 713.37172604 C-420.16440948 712.55917285 -420.16945808 711.74661966 -420.17465967 710.90944365 C-420.19050114 708.15129646 -420.19909909 705.39317305 -420.20773315 702.63499451 C-420.21746657 700.65167724 -420.22760528 698.66836193 -420.23811734 696.68504864 C-420.26573254 691.20720825 -420.28678686 685.72935906 -420.30663323 680.25148571 C-420.32439596 675.55979347 -420.34582332 670.86812064 -420.36717294 666.17644357 C-420.56517029 622.43682776 -420.66942564 578.69671237 -420.75161848 534.95673961 C-420.76388914 528.44829117 -420.77663188 521.93984367 -420.78955078 515.43139648 C-420.79096776 514.71221127 -420.79238474 513.99302605 -420.79384466 513.25204733 C-420.84009654 489.93654517 -420.93113296 466.62148986 -421.04639695 443.30623476 C-421.16463754 419.3453153 -421.2405155 395.38463896 -421.26198688 371.42342752 C-421.26503259 368.03955346 -421.26854837 364.65568002 -421.27234268 361.27180672 C-421.27307268 360.60581407 -421.27380268 359.93982142 -421.2745548 359.25364718 C-421.28672162 349.19538506 -421.3359472 339.13772991 -421.405056 329.07971001 C-421.48332976 317.63780022 -421.51801352 306.19683222 -421.4950311 294.75465845 C-421.4846986 288.91402246 -421.49564217 283.07543337 -421.56312943 277.23513412 C-421.6244327 271.8890024 -421.62588253 266.54633438 -421.57947291 261.2000835 C-421.57327652 259.2651988 -421.58914622 257.33009312 -421.62916015 255.39561229 C-421.85884004 243.59327336 -421.85884004 243.59327336 -420 239 C-416.0761088 234.9975602 -412.17279405 233.17666303 -407 231 C-404.82503436 229.7746199 -402.66260389 228.52643417 -400.51953125 227.24609375 C-398.28500298 225.97454154 -396.04928614 224.70507618 -393.8125 223.4375 C-391.34182403 222.03234523 -388.87211894 220.62548727 -386.40234375 219.21875 C-385.78224426 218.86582382 -385.16214478 218.51289764 -384.52325439 218.14927673 C-378.29361915 214.60215944 -372.0824978 211.02320336 -365.875 207.4375 C-364.81128174 206.82318115 -363.74756348 206.2088623 -362.65161133 205.57592773 C-360.50690413 204.33707777 -358.3622912 203.09806459 -356.21777344 201.85888672 C-350.81329355 198.73675395 -345.40652588 195.61858796 -340 192.5 C-337.8333225 191.25001878 -335.66665583 190.00001879 -333.5 188.75 C-268.5 151.25 -268.5 151.25 -265.24951172 149.37475586 C-263.08442929 148.12564482 -260.91939018 146.87645871 -258.75439453 145.62719727 C-253.31384294 142.48797691 -247.87252784 139.35009437 -242.4296875 136.21484375 C-231.93767906 130.16944841 -221.45518324 124.10889781 -211 118 C-199.45270484 111.25298806 -187.87097973 104.56660682 -176.28222656 97.89111328 C-170.85340058 94.76319852 -165.42680719 91.63141552 -160 88.5 C-157.83334417 87.24998121 -155.6666775 85.99998122 -153.5 84.75 C-152.4275 84.13125 -151.355 83.5125 -150.25 82.875 C-88.5 47.25 -88.5 47.25 -85.24951172 45.37475586 C-83.08442929 44.12564482 -80.91939018 42.87645871 -78.75439453 41.62719727 C-73.31384294 38.48797691 -67.87252784 35.35009437 -62.4296875 32.21484375 C-52.7242547 26.62260396 -43.02328553 21.02351829 -33.35131836 15.37353516 C-31.31412405 14.1839022 -29.27590557 12.99602104 -27.23657227 11.81005859 C-22.99352754 9.34183316 -18.7594626 6.86487924 -14.56640625 4.3125 C-13.91961914 3.92505615 -13.27283203 3.5376123 -12.60644531 3.13842773 C-10.96742298 2.15541584 -9.33676313 1.15849515 -7.70703125 0.16015625 C-4.45611308 -1.23309439 -3.35341073 -0.93896744 0 0 Z M-8.28515625 31.3515625 C-9.19563721 31.8657373 -10.10611816 32.37991211 -11.04418945 32.90966797 C-12.53825317 33.75875732 -12.53825317 33.75875732 -14.0625 34.625 C-15.09528076 35.21039551 -16.12806152 35.79579102 -17.19213867 36.39892578 C-26.45334951 41.66204341 -35.65377805 47.02670373 -44.84765625 52.40625 C-60.75937741 61.71200361 -76.75680377 70.86989456 -92.76538086 80.00769043 C-110.55068412 90.1606985 -128.28403795 100.40176011 -145.96630859 110.7331543 C-156.52647084 116.8994513 -167.12142546 123.00505039 -177.71777344 129.10888672 C-183.14659942 132.23680148 -188.57319281 135.36858448 -194 138.5 C-196.16665583 139.75001879 -198.3333225 141.00001878 -200.5 142.25 C-201.5725 142.86875 -202.645 143.4875 -203.75 144.125 C-213.5 149.75 -213.5 149.75 -216.75048828 151.62524414 C-218.91557071 152.87435518 -221.08060982 154.12354129 -223.24560547 155.37280273 C-228.68615706 158.51202309 -234.12747216 161.64990563 -239.5703125 164.78515625 C-250.06232094 170.83055159 -260.54481676 176.89110219 -271 183 C-282.54729516 189.74701194 -294.12902027 196.43339318 -305.71777344 203.10888672 C-311.14659942 206.23680148 -316.57319281 209.36858448 -322 212.5 C-324.16665583 213.75001879 -326.3333225 215.00001878 -328.5 216.25 C-330.10875 217.178125 -330.10875 217.178125 -331.75 218.125 C-335 220 -338.25 221.875 -341.5 223.75 C-343.11104614 224.67945435 -343.11104614 224.67945435 -344.75463867 225.62768555 C-346.90583224 226.86875254 -349.05703655 228.10980093 -351.20825195 229.35083008 C-356.25962999 232.26498344 -361.3109031 235.17931818 -366.36178589 238.09432983 C-368.15066918 239.12673478 -369.93958717 240.15907956 -371.72851562 241.19140625 C-373.97337636 242.48685948 -376.2181719 243.7824257 -378.46289062 245.078125 C-379.47931641 245.66464844 -380.49574219 246.25117188 -381.54296875 246.85546875 C-382.43008545 247.36746826 -383.31720215 247.87946777 -384.23120117 248.40698242 C-387.48352348 250.27819334 -390.74217509 252.13838577 -394 254 C-394 403.16 -394 552.32 -394 706 C-386.41 710.29 -378.82 714.58 -371 719 C-367.09643235 721.25971373 -363.19855195 723.52361837 -359.3125 725.8125 C-350.57493049 730.93412258 -341.79983667 735.98647712 -333 741 C-323.27865901 746.53968899 -313.59104908 752.13375063 -303.93310547 757.78344727 C-293.40915375 763.93766742 -282.84619863 770.02369996 -272.28222656 776.10888672 C-265.77128743 779.86028024 -259.26336806 783.61690994 -252.75488281 787.37255859 C-247.31414664 790.51182246 -241.87268523 793.64981497 -236.4296875 796.78515625 C-224.9455118 803.40222892 -213.47803106 810.04633977 -202.03417969 816.73291016 C-191.47379718 822.89919054 -180.87873234 829.0049595 -170.28222656 835.10888672 C-164.85340058 838.23680148 -159.42680719 841.36858448 -154 844.5 C-151.83334417 845.75001879 -149.6666775 847.00001878 -147.5 848.25 C-56.5 900.75 -56.5 900.75 -53.24560547 902.62768555 C-51.09376086 903.86903475 -48.94174452 905.11008629 -46.78955078 906.35083008 C-41.74447938 909.25980003 -36.70111579 912.17160523 -31.66400146 915.09432983 C-29.88319999 916.1274294 -28.10184142 917.15956171 -26.3203125 918.19140625 C-24.08742917 919.48506088 -21.8555909 920.78052164 -19.625 922.078125 C-17.63780184 923.22847508 -15.64244087 924.36488535 -13.63769531 925.484375 C-11 927 -11 927 -8.85449219 928.5 C-6.81942924 929.8232518 -5.39965441 930.61364458 -3 931 C0.90576699 929.86972016 4.09275437 927.80434869 7.5 925.625 C8.50119873 925.02155762 9.50239746 924.41811523 10.53393555 923.79638672 C12.6464326 922.52233888 14.75140179 921.23573549 16.84912109 919.9375 C21.78160516 916.9044771 26.80100326 914.02479918 31.8125 911.125 C33.82218781 909.95019879 35.83129607 908.77440567 37.83984375 907.59765625 C47.43942238 901.98321325 57.08135951 896.4419968 66.71777344 890.89111328 C72.14659942 887.76319852 77.57319281 884.63141552 83 881.5 C85.16665583 880.24998121 87.3333225 878.99998122 89.5 877.75 C91.10875 876.821875 91.10875 876.821875 92.75 875.875 C96 874 99.25 872.125 102.5 870.25 C103.57233887 869.63133057 104.64467773 869.01266113 105.74951172 868.37524414 C107.91776264 867.1243552 110.08605697 865.87354148 112.25439453 864.62280273 C117.64717915 861.51201665 123.03922093 858.39995762 128.4296875 855.28515625 C139.05386003 849.14801669 149.68820637 843.0298093 160.34631348 836.95184326 C170.61847237 831.09387165 180.86029113 825.18710152 191.06738281 819.21630859 C201.59111319 813.06207011 212.1539592 806.97620913 222.71777344 800.89111328 C228.14659942 797.76319852 233.57319281 794.63141552 239 791.5 C241.16665583 790.24998121 243.3333225 788.99998122 245.5 787.75 C247.10875 786.821875 247.10875 786.821875 248.75 785.875 C258.50000001 780.25 258.50000001 780.25 261.75048828 778.37475586 C263.91557071 777.12564482 266.08060982 775.87645871 268.24560547 774.62719727 C273.68615706 771.48797691 279.12747216 768.35009437 284.5703125 765.21484375 C295.06232094 759.16944841 305.54481676 753.10889781 316 747 C327.51952901 740.26921165 339.07334922 733.59882319 350.63427734 726.93945312 C354.1489325 724.91417962 357.66255469 722.88712521 361.17578125 720.859375 C361.76593018 720.51877548 362.3560791 720.17817596 362.96411133 719.82725525 C365.79692756 718.19230093 368.62969 716.55725345 371.46240234 714.92211914 C372.47898926 714.33551514 373.49557617 713.74891113 374.54296875 713.14453125 C375.8736438 712.37653198 375.8736438 712.37653198 377.23120117 711.59301758 C380.48352348 709.72180666 383.74217509 707.86161423 387 706 C387 556.84 387 407.68 387 254 C374.625 247.07 374.625 247.07 362 240 C353.5625 235.0625 353.5625 235.0625 349.53125 232.671875 C343.90132079 229.33998053 338.2307813 226.07857128 332.5625 222.8125 C331.45672607 222.17521973 330.35095215 221.53793945 329.21166992 220.88134766 C325.8080747 218.9203862 322.40408111 216.96011785 319 215 C305.3242105 207.12380667 291.66038714 199.22879716 278.03417969 191.26708984 C267.47379718 185.10080946 256.87873234 178.9950405 246.28222656 172.89111328 C240.85340058 169.76319852 235.42680719 166.63141552 230 163.5 C227.83334417 162.24998121 225.6666775 160.99998122 223.5 159.75 C219.16666667 157.25 214.83333333 154.75 210.5 152.25 C209.42733887 151.63116943 208.35467773 151.01233887 207.24951172 150.37475586 C205.08442929 149.12564482 202.91939018 147.87645871 200.75439453 146.62719727 C195.31384294 143.48797691 189.87252784 140.35009437 184.4296875 137.21484375 C173.97793801 131.19252671 163.53700452 125.15330663 153.125 119.0625 C143.85436069 113.64041301 134.54063301 108.29675988 125.20953369 102.97976685 C116.13221364 97.80621213 107.09428467 92.56857846 98.078125 87.2890625 C90.41426026 82.80833735 82.71314165 78.39505776 75 74 C65.28759711 68.46517957 55.60857219 62.87660026 45.95947266 57.23193359 C35.27432975 50.98334327 24.55254667 44.79872638 13.82373047 38.62548828 C11.30963251 37.17824081 8.7971489 35.72824079 6.28515625 34.27734375 C5.00270492 33.5388875 3.72016332 32.80058797 2.4375 32.0625 C1.38433594 31.45535156 0.33117187 30.84820312 -0.75390625 30.22265625 C-4.2289817 28.33100648 -4.89614065 29.43522145 -8.28515625 31.3515625 Z " fill="#555273" transform="translate(604,120)"/>
<path d="M0 0 C5.625 -0.25 5.625 -0.25 9 2 C10.88154883 2.44111565 12.78062638 2.8109267 14.6875 3.125 C15.68136719 3.29257812 16.67523437 3.46015625 17.69921875 3.6328125 C18.45847656 3.75398437 19.21773437 3.87515625 20 4 C20 4.66 20 5.32 20 6 C21.99954746 6.04254356 24.00041636 6.04080783 26 6 C26.33 5.67 26.66 5.34 27 5 C29.25 4.625 29.25 4.625 32 5 C33.71093473 6.62119027 35.37039673 8.29707641 37 10 C38.92834042 11.80333077 40.86237238 13.59572092 42.8125 15.375 C43.34020996 15.85831787 43.86791992 16.34163574 44.41162109 16.83959961 C47.27963887 19.45862409 50.17629208 22.03417814 53.125 24.5625 C56.124233 27.14995306 58.871664 29.90280027 61.625 32.75 C66.16880591 37.36436191 71.03266284 41.33543919 76.17822266 45.24511719 C82.94610122 50.39738807 82.94610122 50.39738807 85 53 C85.3203125 55.62109375 85.3203125 55.62109375 85.125 58.4375 C84.8582019 62.60767026 85.33787527 65.17385405 87 69 C86.8125 71.25 86.8125 71.25 86 73 C84.515 73.495 84.515 73.495 83 74 C82.505 75.485 82.505 75.485 82 77 C80.03125 78.359375 80.03125 78.359375 77.5 79.75 C72.28531348 82.7405551 67.65023708 86.20342963 63 90 C63.51828888 95.28866204 66.27031225 99.29027473 68.9375 103.75 C69.42750488 104.58257324 69.91750977 105.41514648 70.42236328 106.27294922 C71.94191727 108.85242996 73.47066856 111.42630719 75 114 C76.79446518 117.04002059 78.58495818 120.08237309 80.375 123.125 C80.78999756 123.83019775 81.20499512 124.53539551 81.63256836 125.26196289 C89.97020705 139.44220739 89.97020705 139.44220739 92 146 C92.66 146.99 93.32 147.98 94 149 C94.74226804 154.03092784 94.74226804 154.03092784 94 157 C92.00261516 159.51356294 89.65590913 161.22386077 87 163 C86.113125 163.61875 85.22625 164.2375 84.3125 164.875 C82 166 82 166 78 166 C72.91206801 163.32983204 70.44729344 160.10936405 67.875 155.125 C67.5052002 154.44026611 67.13540039 153.75553223 66.75439453 153.05004883 C65.93818665 151.53650316 65.12843306 150.01946407 64.32421875 148.49951172 C61.8752983 143.87708408 59.3730892 139.28348584 56.875 134.6875 C56.36251709 133.74148926 55.85003418 132.79547852 55.32202148 131.82080078 C52.19574831 126.08265975 48.93681956 120.52823768 45.3359375 115.07421875 C43.65714318 112.46766967 42.29317429 109.81455581 41 107 C39.58222818 107.08785338 38.16570961 107.19604647 36.75 107.3125 C35.96109375 107.37050781 35.1721875 107.42851563 34.359375 107.48828125 C31.49969335 108.10851022 30.13923878 109.01238252 28 111 C27.41368456 113.11635754 27.41368456 113.11635754 27.51757812 115.49975586 C27.51077026 116.40757309 27.5039624 117.31539032 27.49694824 118.25071716 C27.50826782 119.22887894 27.5195874 120.20704071 27.53125 121.21484375 C27.52420044 122.22213028 27.51715088 123.22941681 27.5098877 124.26722717 C27.48032042 128.58152242 27.49704537 132.89537054 27.50927734 137.2097168 C27.51165395 140.35753558 27.49075867 143.50461639 27.46875 146.65234375 C27.48006958 147.62848129 27.49138916 148.60461884 27.50305176 149.6103363 C27.45238474 156.39016082 27.45238474 156.39016082 25.09277344 159.57104492 C21.43092864 162.07136895 18.69339734 163.23293553 14.25 163.625 C13.05117188 163.73714844 13.05117188 163.73714844 11.828125 163.8515625 C11.22484375 163.90054688 10.6215625 163.94953125 10 164 C10 164.66 10 165.32 10 166 C7.61435923 165.42415568 5.33317216 164.77772405 3 164 C-2.8466799 153.20526894 -0.09719098 135.20099925 0 123.1875 C0.02662354 119.80599331 0.04651922 116.42454042 0.0625 113.04296875 C0.07494751 111.89467842 0.07494751 111.89467842 0.08764648 110.72319031 C0.10249001 107.53755687 0.01541742 105.04625227 -1 102 C-1.1194724 99.49156353 -1.18522259 97.00871942 -1.20532227 94.49926758 C-1.21522186 93.73805099 -1.22512146 92.97683441 -1.23532104 92.19255066 C-1.26690729 89.67657582 -1.29168209 87.16058211 -1.31640625 84.64453125 C-1.33697826 82.90003468 -1.3579748 81.15554307 -1.37937927 79.41105652 C-1.43457442 74.81946833 -1.48399499 70.22783535 -1.53222656 65.63616943 C-1.58246024 60.95076511 -1.63813657 56.26542583 -1.69335938 51.58007812 C-1.80090968 42.38677432 -1.90236162 33.19341404 -2 24 C-2.66 23.67 -3.32 23.34 -4 23 C-3.9278125 22.43152344 -3.855625 21.86304688 -3.78125 21.27734375 C-3.33677697 17.5795751 -2.9962703 14.10816143 -3.125 10.375 C-2.97068739 6.20855962 -1.82227504 3.7204782 0 0 Z " fill="#565374" transform="translate(622,528)"/>
<path d="M0 0 C1.97706004 0.49426501 3.95342607 0.99201526 5.921875 1.51953125 C8.32623169 2.07542575 10.54091542 2.15369279 13 2 C15.39868636 6.38949893 15.85698044 10.09244794 15 15 C12.18573272 23.06463468 8.35023115 30.56248148 4.0625 37.9375 C-6.50691409 56.12248251 -15.62586435 75.57127718 -23.12890625 95.20703125 C-26.08374548 102.91182764 -29.48627183 110.43344417 -32.80078125 117.98828125 C-33.17799316 118.85018066 -33.55520508 119.71208008 -33.94384766 120.60009766 C-34.60763282 122.10842131 -35.27819986 123.61379705 -35.95849609 125.11474609 C-37.22425603 127.94474535 -38 129.85770967 -38 133 C-36.20598755 133.02187378 -36.20598755 133.02187378 -34.37573242 133.04418945 C-29.94183325 133.10212586 -25.50844442 133.17935874 -21.07495117 133.26245117 C-19.15543902 133.2957225 -17.23582852 133.32374754 -15.31616211 133.34643555 C-12.55800428 133.37994121 -9.80074957 133.43225403 -7.04296875 133.48828125 C-6.18350143 133.49467117 -5.32403412 133.5010611 -4.43852234 133.50764465 C-3.23761711 133.53733589 -3.23761711 133.53733589 -2.01245117 133.56762695 C-0.95655037 133.58428154 -0.95655037 133.58428154 0.12068176 133.60127258 C2.58613204 134.12435729 3.46915279 135.02593662 5 137 C6.30020932 142.27732017 5.7925804 146.08570909 4.25 151.25 C3.90453125 152.45140625 3.5590625 153.6528125 3.203125 154.890625 C2.04278686 157.88942097 1.45282589 159.06334712 -1 161 C-2.95042419 161.39199829 -2.95042419 161.39199829 -5.18920898 161.41650391 C-6.03116318 161.43307037 -6.87311737 161.44963684 -7.74058533 161.46670532 C-8.64990311 161.46995819 -9.55922089 161.47321106 -10.49609375 161.4765625 C-11.91197533 161.49993179 -11.91197533 161.49993179 -13.35646057 161.52377319 C-16.38346412 161.57133547 -19.41024099 161.59901288 -22.4375 161.625 C-26.39462741 161.67357332 -30.35160947 161.73004924 -34.30859375 161.7890625 C-35.25688553 161.80207397 -36.20517731 161.81508545 -37.1822052 161.82849121 C-43.02734945 161.92243821 -48.81804702 162.17559516 -54.63720703 162.77001953 C-67.12841665 163.98584093 -67.12841665 163.98584093 -72 160 C-75.47602722 157.01983814 -76.17179643 154.12110973 -76.94189453 149.70166016 C-77.04409725 144.94966299 -74.86609911 141.64052478 -72.4375 137.6875 C-71.48673148 136.02393975 -70.54140237 134.35725882 -69.6015625 132.6875 C-69.14555664 131.88570312 -68.68955078 131.08390625 -68.21972656 130.2578125 C-66.11743053 126.36629254 -64.70064387 122.26934781 -63.2109375 118.1171875 C-61.83152451 114.56631148 -60.175252 111.1969984 -58.4375 107.8125 C-56.05909963 103.16822573 -53.95482184 98.56067611 -52.09375 93.69140625 C-50.18976475 89.00624254 -47.96254812 84.46714608 -45.78125 79.90625 C-44.46604274 77.10378275 -43.32140158 74.26970413 -42.21484375 71.37890625 C-39.62851683 64.83028166 -36.33581296 58.66334815 -33.0625 52.4375 C-32.45470703 51.27025391 -31.84691406 50.10300781 -31.22070312 48.90039062 C-27.90354618 42.54876863 -24.52503934 36.23880049 -21 30 C-31.29544314 28.99459891 -41.47954577 28.87950502 -51.8125 28.9375 C-53.3912746 28.94253053 -54.97005078 28.94709066 -56.54882812 28.95117188 C-60.3659252 28.96204184 -64.18294455 28.97921864 -68 29 C-68.65870014 27.59149685 -69.30950238 26.17929871 -69.95703125 24.765625 C-70.32030518 23.97961914 -70.6835791 23.19361328 -71.05786133 22.38378906 C-72.43580559 18.89732941 -72.68899584 15.7320499 -73 12 C-73.31323028 10.32943851 -73.63678515 8.66041075 -74 7 C-68.26448835 1.91997539 -63.50670923 1.83352808 -56.0625 1.875 C-55.37220703 1.87113281 -54.68191406 1.86726562 -53.97070312 1.86328125 C-50.98908987 1.8689336 -48.14995981 1.97322756 -45.21166992 2.49780273 C-39.64845457 3.3677027 -34.03118262 3.18594427 -28.41259766 3.18530273 C-26.24231884 3.1875078 -24.0725341 3.20575306 -21.90234375 3.22460938 C-20.52343923 3.22754036 -19.14453231 3.22952713 -17.765625 3.23046875 C-15.89052246 3.23663208 -15.89052246 3.23663208 -13.97753906 3.24291992 C-10.88222874 3.31374045 -10.88222874 3.31374045 -9 1 C-7.08984375 0.83984375 -7.08984375 0.83984375 -4.9375 0.9375 C-3.638125 0.958125 -2.33875 0.97875 -1 1 C-0.67 0.67 -0.34 0.34 0 0 Z " fill="#565374" transform="translate(508,528)"/>
<path d="M0 0 C7.7173913 3.2798913 7.7173913 3.2798913 10.5 6.0625 C11.655 6.51625 12.81 6.97 14 7.4375 C17.69146859 9.15139613 18.05411493 9.54899928 19.5 13.0625 C18.5843974 14.29245949 17.66745797 15.52142386 16.75 16.75 C16.23953125 17.43449219 15.7290625 18.11898437 15.203125 18.82421875 C14.02218767 20.37623042 12.81576368 21.90905005 11.58984375 23.42578125 C9.2303713 26.40268574 7.01070206 29.46619645 4.8125 32.5625 C4.37897217 33.17125977 3.94544434 33.78001953 3.4987793 34.40722656 C-0.17853534 39.58315224 -3.80063583 44.79591129 -7.3984375 50.02734375 C-8.7421434 51.96797476 -10.10022425 53.89878083 -11.4765625 55.81640625 C-14.55543238 60.10717172 -17.239666 64.26559901 -19.45703125 69.05859375 C-21.08759429 72.1914733 -23.21058893 74.96917536 -25.328125 77.7890625 C-26.91887306 80.87511374 -27.03727859 82.62391702 -26.5 86.0625 C-24.87919866 88.42482528 -23.3588024 90.35684124 -21.4375 92.4375 C-20.93307373 93.00766846 -20.42864746 93.57783691 -19.90893555 94.1652832 C-18.45154099 95.80919442 -16.97747346 97.43665003 -15.5 99.0625 C-14.26763185 100.45550758 -13.03785313 101.8508177 -11.8125 103.25 C-11.26335938 103.87390625 -10.71421875 104.4978125 -10.1484375 105.140625 C-7.65922094 108.04274478 -5.29875706 111.04245458 -2.9296875 114.04296875 C-1.04496136 116.38524095 0.86468402 118.69240941 2.8046875 120.98828125 C9.32902734 128.73637852 15.35664754 136.45626786 20.65234375 145.09765625 C22.19787558 147.57769569 23.81834908 149.83591913 25.625 152.125 C27.5 155.0625 27.5 155.0625 27.5 157.875 C26.5 160.0625 26.5 160.0625 23.5 162.0625 C20.23757953 162.68194212 16.93693495 162.80448748 13.625 163 C12.72652344 163.08056641 11.82804688 163.16113281 10.90234375 163.24414062 C4.25180396 163.64199419 4.25180396 163.64199419 0.63671875 160.85546875 C-0.06839844 159.93378906 -0.77351562 159.01210938 -1.5 158.0625 C-2.21800781 157.30710937 -2.93601562 156.55171875 -3.67578125 155.7734375 C-8.320629 150.6955235 -12.48196479 145.47115325 -16.4609375 139.859375 C-19.28987089 135.97907556 -22.35238499 132.31006227 -25.41015625 128.609375 C-29.66964253 123.4183749 -33.4922595 118.08428554 -37.125 112.4375 C-41.19571834 106.25283719 -45.87922701 100.74288384 -50.765625 95.19140625 C-51.2304126 94.65942627 -51.6952002 94.12744629 -52.17407227 93.5793457 C-53.39745064 92.17981525 -54.6262173 90.78499978 -55.85546875 89.390625 C-57.5 87.0625 -57.5 87.0625 -57.5625 83.25 C-56.83250935 79.2122392 -55.00186433 76.31125246 -52.7109375 72.9609375 C-51.12131637 70.4688218 -50.28040998 67.90035448 -49.5 65.0625 C-48.84 65.0625 -48.18 65.0625 -47.5 65.0625 C-47.21640625 64.4953125 -46.9328125 63.928125 -46.640625 63.34375 C-46.26421875 62.5909375 -45.8878125 61.838125 -45.5 61.0625 C-45.16484375 60.3715625 -44.8296875 59.680625 -44.484375 58.96875 C-40.0867299 50.39612538 -34.46961977 42.71918598 -28.90234375 34.87890625 C-26.25566642 31.15097765 -23.69191077 27.38714341 -21.1875 23.5625 C-5.69572967 0.14239324 -5.69572967 0.14239324 0 0 Z " fill="#565374" transform="translate(577.5,528.9375)"/>
<path d="M0 0 C2.71244918 0.92620216 4.2931146 2.15576863 6.5625 3.875 C8.54264432 4.59851427 10.54071315 5.27765389 12.5625 5.875 C12.5625 6.535 12.5625 7.195 12.5625 7.875 C13.655625 8.101875 14.74875 8.32875 15.875 8.5625 C19.5625 9.875 19.5625 9.875 21.19140625 11.81640625 C23.13413472 16.15018516 23.60890997 20.4371058 24.1875 25.125 C24.30867187 26.02863281 24.42984375 26.93226563 24.5546875 27.86328125 C24.90795608 30.53199496 25.23885519 33.2025469 25.5625 35.875 C25.66256348 36.66874023 25.76262695 37.46248047 25.86572266 38.28027344 C27.26497681 49.89681684 26.64274789 61.65017883 26.125 73.3125 C26.08584473 74.23063477 26.04668945 75.14876953 26.00634766 76.09472656 C25.96429199 76.94905273 25.92223633 77.80337891 25.87890625 78.68359375 C25.84224854 79.44470459 25.80559082 80.20581543 25.76782227 80.98999023 C25.5625 82.875 25.5625 82.875 24.5625 84.875 C24.42402592 86.23707818 24.33745667 87.6047115 24.28125 88.97265625 C24.24386719 89.77380859 24.20648437 90.57496094 24.16796875 91.40039062 C24.09749415 93.09569639 24.02718239 94.79100894 23.95703125 96.48632812 C23.66315115 102.77434885 23.66315115 102.77434885 22.5625 103.875 C20.85686222 104.03240605 19.14522756 104.12593392 17.43359375 104.19140625 C16.39912109 104.23330078 15.36464844 104.27519531 14.29882812 104.31835938 C13.21021484 104.35767578 12.12160156 104.39699219 11 104.4375 C9.3612793 104.50227539 9.3612793 104.50227539 7.68945312 104.56835938 C4.98060436 104.67482068 2.27166008 104.77683516 -0.4375 104.875 C-0.581875 103.823125 -0.72625 102.77125 -0.875 101.6875 C-1.18296948 99.6001513 -1.51711622 97.51380595 -1.97129822 95.45332336 C-2.44691081 92.82295364 -2.52130545 90.47863435 -2.45922852 87.80932617 C-2.43913223 86.82868698 -2.41903595 85.84804779 -2.39833069 84.83769226 C-2.37129562 83.7916835 -2.34426056 82.74567474 -2.31640625 81.66796875 C-2.29279526 80.58743729 -2.26918427 79.50690582 -2.24485779 78.39363098 C-2.16841702 74.94978048 -2.08430821 71.506166 -2 68.0625 C-1.94675973 65.72462084 -1.89401946 63.38673024 -1.84179688 61.04882812 C-1.71282839 55.3240734 -1.57756734 49.59949334 -1.4375 43.875 C-2.0975 43.875 -2.7575 43.875 -3.4375 43.875 C-3.72724684 39.80428803 -4.01183147 35.73324845 -4.29199219 31.66186523 C-4.38763897 30.2818876 -4.48460513 28.90200066 -4.58300781 27.5222168 C-5.05575888 20.88199385 -5.50327205 14.23726592 -5.6875 7.58203125 C-5.71328125 6.73745361 -5.7390625 5.89287598 -5.765625 5.02270508 C-5.4375 2.875 -5.4375 2.875 -4.07421875 1.07299805 C-2.4375 -0.125 -2.4375 -0.125 0 0 Z " fill="#575474" transform="translate(731.4375,585.125)"/>
<path d="M0 0 C2.79944083 2.99292271 4.80970078 6.54440758 7 10 C7.59941406 10.83660156 8.19882812 11.67320312 8.81640625 12.53515625 C12.33398124 17.68501662 13.95664104 21.55305865 12.8828125 27.8203125 C11.59532582 30.9991513 9.69624778 32.11047966 6.7890625 33.7734375 C3.74233065 35.86224493 2.60131841 38.73331044 1 42 C-2.54149081 42.52080747 -3.82051063 42.12601911 -6.79296875 40.0390625 C-10.72430582 36.61732076 -13.38417438 32.41493838 -16.1875 28.0625 C-16.70763672 27.27681641 -17.22777344 26.49113281 -17.76367188 25.68164062 C-23.20785932 17.37282326 -23.20785932 17.37282326 -25 13 C-23.67819446 9.03458338 -21.24217319 8.0116716 -17.8125 6 C-16.68457031 5.319375 -15.55664062 4.63875 -14.39453125 3.9375 C-13.27433594 3.298125 -12.15414062 2.65875 -11 2 C-9.45892578 1.1028125 -9.45892578 1.1028125 -7.88671875 0.1875 C-4.59086183 -1.16830582 -3.28072078 -1.35281808 0 0 Z " fill="#575474" transform="translate(580,594)"/>
<path d="M0 0 C3.23279977 1.32627683 4.53698856 3.11403819 6.4375 6 C6.4375 6.66 6.4375 7.32 6.4375 8 C7.200625 8.268125 7.96375 8.53625 8.75 8.8125 C12.85508242 10.62637363 12.85508242 10.62637363 14.4375 13 C14.06877635 17.11684635 12.86635406 19.06286739 9.9453125 21.91796875 C8.88763672 22.96307617 8.88763672 22.96307617 7.80859375 24.02929688 C6.69677734 25.09760742 6.69677734 25.09760742 5.5625 26.1875 C4.46228516 27.27321289 4.46228516 27.27321289 3.33984375 28.38085938 C0.46018609 31.20019634 -2.20059521 33.75873014 -5.5625 36 C-8.0397498 35.84517189 -10.15295704 35.52192266 -12.5625 35 C-13.46226562 34.8246875 -14.36203125 34.649375 -15.2890625 34.46875 C-21.73137299 33.01011366 -24.9538554 31.59962093 -28.5625 26 C-24.47479389 20.23792675 -20.02196013 15.14901527 -15 10.1875 C-14.35353516 9.53330078 -13.70707031 8.87910156 -13.04101562 8.20507812 C-4.80241318 0 -4.80241318 0 0 0 Z " fill="#575474" transform="translate(746.5625,531)"/>
<path d="M0 0 C5 4 5 4 6 6 C6.75434326 6.44899658 7.50868652 6.89799316 8.28588867 7.3605957 C11.10613815 9.06411061 13.11728263 10.88875433 15.42578125 13.23046875 C16.22177734 14.03291016 17.01777344 14.83535156 17.83789062 15.66210938 C18.65451172 16.49548828 19.47113281 17.32886719 20.3125 18.1875 C21.14845703 19.03248047 21.98441406 19.87746094 22.84570312 20.74804688 C24.90173598 22.82757725 26.95294296 24.91163963 29 27 C27.59067013 30.36880889 26.03341322 32.01504488 23.078125 34.12890625 C22.29953125 34.68900391 21.5209375 35.24910156 20.71875 35.82617188 C19.9040625 36.39916016 19.089375 36.97214844 18.25 37.5625 C17.45078125 38.13935547 16.6515625 38.71621094 15.828125 39.31054688 C5.04337875 47 5.04337875 47 0 47 C0 31.49 0 15.98 0 0 Z " fill="#FDFDFD" transform="translate(648,562)"/>
</svg>
