<?xml version="1.0" encoding="UTF-8"?>
<svg version="1.1" xmlns="http://www.w3.org/2000/svg" width="645" height="645">
<path d="M0 0 C2.65627823 1.38578492 5.30016923 2.77204549 7.91308594 4.23852539 C8.93716553 4.81207764 9.96124512 5.38562988 11.01635742 5.9765625 C12.10118408 6.58894775 13.18601074 7.20133301 14.30371094 7.83227539 C15.43043213 8.46593018 16.55715332 9.09958496 17.71801758 9.75244141 C24.50888836 13.58228103 31.2635584 17.4656314 37.96899414 21.44287109 C44.28095619 25.18532202 50.63312695 28.85631018 56.99121094 32.51977539 C58.09843506 33.15778076 59.20565918 33.79578613 60.34643555 34.453125 C62.61708161 35.76117016 64.88783452 37.06902987 67.15869141 38.37670898 C72.62541069 41.5255959 78.0894874 44.67906029 83.55371094 47.83227539 C90.07603533 51.59592904 96.59884857 55.35872162 103.12402344 59.11743164 C114.60231805 65.73121731 126.07033151 72.36123449 137.49755859 79.06298828 C147.47170469 84.90024462 157.51739775 90.59723929 167.55371094 96.33227539 C167.55371094 161.34227539 167.55371094 226.35227539 167.55371094 293.33227539 C159.96371094 297.62227539 152.37371094 301.91227539 144.55371094 306.33227539 C140.60847487 308.61278574 136.6687339 310.8972082 132.74121094 313.20727539 C121.13555952 320.00328257 109.48976403 326.72818422 97.8359375 333.44116211 C92.40711151 336.56907687 86.98051813 339.70085987 81.55371094 342.83227539 C79.38705511 344.08229418 77.22038844 345.33229417 75.05371094 346.58227539 C73.98121094 347.20102539 72.90871094 347.81977539 71.80371094 348.45727539 C62.05371094 354.08227539 62.05371094 354.08227539 58.80151367 355.95849609 C56.64211699 357.20433309 54.48277425 358.45026357 52.32348633 359.69628906 C46.79603497 362.88576492 41.26755973 366.07344424 35.73730469 369.25805664 C34.61670654 369.90395752 33.4961084 370.5498584 32.34155273 371.21533203 C30.13465933 372.48626977 27.92651768 373.75504286 25.71704102 375.02148438 C20.87401598 377.80396424 16.05993605 380.61246947 11.31933594 383.56665039 C10.14479858 384.290177 10.14479858 384.290177 8.9465332 385.02832031 C7.525745 385.90866478 6.11387718 386.8036565 4.71362305 387.71630859 C2.84667969 388.86743164 2.84667969 388.86743164 -0.44628906 390.33227539 C-4.06263139 389.217477 -7.26744731 387.41260933 -10.55957031 385.56665039 C-11.54739502 385.01380371 -12.53521973 384.46095703 -13.55297852 383.89135742 C-15.13985474 382.99586182 -15.13985474 382.99586182 -16.75878906 382.08227539 C-17.86891357 381.45820801 -18.97903809 380.83414062 -20.12280273 380.19116211 C-28.53445647 375.44728716 -36.88817178 370.60786028 -45.21777344 365.72143555 C-52.27830418 361.58293821 -59.3743343 357.50996494 -66.48828125 353.46420288 C-76.47090902 347.78685864 -86.39350205 342.02407357 -96.25878906 336.14477539 C-105.41872501 330.68605041 -114.63601873 325.35250416 -123.93554688 320.13549805 C-131.95969747 315.62803571 -139.91475515 311.00772731 -147.85327148 306.35131836 C-155.35382249 301.95423953 -162.8956462 297.64692846 -170.44628906 293.33227539 C-170.44628906 228.32227539 -170.44628906 163.31227539 -170.44628906 96.33227539 C-161.20628906 91.05227539 -151.96628906 85.77227539 -142.44628906 80.33227539 C-134.8529475 75.9570643 -127.2606921 71.58025768 -119.67285156 67.19555664 C-116.41104899 65.31192489 -113.14767062 63.43105218 -109.88378906 61.55102539 C-99.38889911 55.50480182 -88.90404727 49.44253263 -78.44628906 43.33227539 C-63.31699829 34.4942128 -48.14895582 25.72328976 -32.93066406 17.03930664 C-32.303797 16.68153137 -31.67692993 16.3237561 -31.03106689 15.95513916 C-28.00809255 14.23019825 -24.98427661 12.50676111 -21.95898438 10.78588867 C-20.86166992 10.16053223 -19.76435547 9.53517578 -18.63378906 8.89086914 C-17.06177734 8.00117432 -17.06177734 8.00117432 -15.45800781 7.09350586 C-13.47308383 5.93273725 -11.51546472 4.72376967 -9.59082031 3.46557617 C-8.718125 2.89693848 -7.84542969 2.32830078 -6.94628906 1.74243164 C-5.81707031 0.97298218 -5.81707031 0.97298218 -4.66503906 0.18798828 C-2.44628906 -0.66772461 -2.44628906 -0.66772461 0 0 Z M-9.04785156 21.30493164 C-10.16450195 21.94962402 -11.28115234 22.59431641 -12.43164062 23.25854492 C-13.6449415 23.97047737 -14.85815537 24.6825581 -16.07128906 25.39477539 C-17.33090665 26.12589786 -18.59100507 26.85619251 -19.8515625 27.58569336 C-22.44915008 29.0904959 -25.04398803 30.59988229 -27.63671875 32.11303711 C-32.2418404 34.79899446 -36.86428909 37.45434872 -41.48632812 40.11108398 C-50.78650756 45.46003112 -60.06024186 50.85342876 -69.32128906 56.26977539 C-78.58964877 61.69039876 -87.90093166 67.03287163 -97.22970581 72.34848022 C-106.35031717 77.54664506 -115.4387501 82.79732367 -124.49121094 88.11352539 C-134.42899372 93.93937584 -144.44159717 99.61530859 -154.44628906 105.33227539 C-154.44628906 164.40227539 -154.44628906 223.47227539 -154.44628906 284.33227539 C-145.53628906 289.28227539 -145.53628906 289.28227539 -136.44628906 294.33227539 C-132.6029756 296.54710796 -128.76844192 298.76956475 -124.94628906 301.01977539 C-122.89191705 302.22343902 -120.83721783 303.42654432 -118.78222656 304.62915039 C-117.22133301 305.54277344 -117.22133301 305.54277344 -115.62890625 306.47485352 C-110.28737816 309.59224732 -104.92980533 312.68170081 -99.57128906 315.76977539 C-98.49169922 316.39198975 -97.41210938 317.0142041 -96.29980469 317.65527344 C-94.10946386 318.91739056 -91.91903404 320.17935324 -89.72851562 321.44116211 C-83.2175765 325.19255563 -76.70965712 328.94918533 -70.20117188 332.70483398 C-64.7604357 335.84409785 -59.31897429 338.98209036 -53.87597656 342.11743164 C-41.98837048 348.96700331 -30.11587738 355.84119498 -18.27197266 362.76611328 C-16.46123663 363.82460775 -14.6479345 364.87873034 -12.83154297 365.92749023 C-11.34596949 366.80241243 -9.87578246 367.70472976 -8.43212891 368.6472168 C-5.62014292 370.44476674 -3.96025094 371.37270034 -0.58129883 371.10693359 C2.68790908 370.29911515 5.02096847 369.19102071 7.91308594 367.48071289 C8.93289551 366.88444092 9.95270508 366.28816895 11.00341797 365.67382812 C12.09251465 365.02486572 13.18161133 364.37590332 14.30371094 363.70727539 C15.45922373 363.02799322 16.61532231 362.34970666 17.77197266 361.67236328 C20.17445985 360.26445945 22.57437335 358.85230848 24.97265625 357.43725586 C30.51643307 354.171705 36.10029182 350.97563736 41.67871094 347.76977539 C49.98505346 342.98224733 58.27589847 338.16894916 66.55371094 333.33227539 C78.09363653 326.58956944 89.66806614 319.90765014 101.24951172 313.23657227 C104.57985346 311.31720877 107.90880241 309.39545186 111.23730469 307.47290039 C112.34799316 306.83151123 113.45868164 306.19012207 114.60302734 305.52929688 C116.66408071 304.33901774 118.72497443 303.14846208 120.78564453 301.95751953 C131.02229151 296.04797403 141.29070374 290.19685093 151.55371094 284.33227539 C151.55371094 225.26227539 151.55371094 166.19227539 151.55371094 105.33227539 C143.30371094 100.71227539 135.05371094 96.09227539 126.55371094 91.33227539 C113.42772638 83.70408541 113.42772638 83.70408541 108.65136719 80.89868164 C102.30324528 77.17892656 95.93012052 73.50326886 89.55371094 69.83227539 C81.24546361 65.04774983 72.95372359 60.23653812 64.67871094 55.39477539 C54.83445245 49.63705922 44.94350312 43.9638472 35.02880859 38.32861328 C29.18463 35.0031829 23.36423796 31.64444597 17.58496094 28.20727539 C15.93367188 27.22887695 15.93367188 27.22887695 14.24902344 26.23071289 C12.16644502 24.99338635 10.08808295 23.74892686 8.01464844 22.49633789 C7.08910156 21.94719727 6.16355469 21.39805664 5.20996094 20.83227539 C4.40365234 20.34758789 3.59734375 19.86290039 2.76660156 19.36352539 C-1.98304428 17.1500982 -4.87783156 18.8753144 -9.04785156 21.30493164 Z " fill="#66B0C0" transform="translate(326.4462890625,17.667724609375)"/>
<path d="M0 0 C1.35049438 0.78213867 1.35049438 0.78213867 2.72827148 1.58007812 C4.22197266 2.43666016 4.22197266 2.43666016 5.74584961 3.31054688 C6.77000977 3.90480469 7.79416992 4.4990625 8.84936523 5.11132812 C10.89066018 6.29131179 12.93357398 7.46850036 14.97827148 8.64257812 C15.87747314 9.16400391 16.7766748 9.68542969 17.703125 10.22265625 C20.26861217 11.66985043 20.26861217 11.66985043 23.06616211 12.68847656 C25.28686523 13.61132812 25.28686523 13.61132812 26.12670898 15.34570312 C26.33126995 18.23949235 26.13179595 20.97425861 25.84936523 23.86132812 C25.7475293 24.93898437 25.64569336 26.01664063 25.54077148 27.12695312 C25.41508789 28.35671875 25.41508789 28.35671875 25.28686523 29.61132812 C26.60460937 30.01665771 26.60460937 30.01665771 27.94897461 30.43017578 C31.1066736 31.54756517 33.78774353 32.85651067 36.69311523 34.50976562 C37.6844043 35.07179687 38.67569336 35.63382813 39.69702148 36.21289062 C41.22649414 37.09074219 41.22649414 37.09074219 42.78686523 37.98632812 C44.31633789 38.85257813 44.31633789 38.85257813 45.87670898 39.73632812 C58.73633181 47.0607947 58.73633181 47.0607947 61.28686523 49.61132812 C61.37530317 52.05963239 61.40215275 54.47953411 61.38452148 56.92773438 C61.38239906 58.02431618 61.38239906 58.02431618 61.38023376 59.14305115 C61.37461932 61.48668445 61.36206445 63.83022352 61.34936523 66.17382812 C61.34435209 67.75911321 61.33978886 69.34439978 61.33569336 70.9296875 C61.3246452 74.82360422 61.30737095 78.71745018 61.28686523 82.61132812 C63.75005473 83.60377329 66.20576739 84.58255147 68.70874023 85.47070312 C69.47702148 85.76460938 70.24530273 86.05851562 71.03686523 86.36132812 C71.81545898 86.64492187 72.59405273 86.92851562 73.39624023 87.22070312 C75.28686523 88.61132812 75.28686523 88.61132812 75.89282227 91.23730469 C76.56058403 96.95506655 76.50647393 102.65976945 76.42944336 108.40625 C76.41772488 109.87626839 76.42391253 111.34653848 76.44799805 112.81640625 C76.63727328 124.91920574 76.63727328 124.91920574 73.60327148 128.72094727 C71.243423 130.32909535 68.89790673 131.45792311 66.28686523 132.61132812 C64.44030679 133.67962069 62.60195085 134.76219325 60.77124023 135.85742188 C58.86226077 136.92566587 56.95077168 137.98943682 55.03686523 139.04882812 C54.07006836 139.60248047 53.10327148 140.15613281 52.10717773 140.7265625 C51.17131836 141.24412109 50.23545898 141.76167969 49.27124023 142.29492188 C48.43302734 142.76470459 47.59481445 143.2344873 46.73120117 143.71850586 C42.77143881 145.16485534 40.1487585 143.98411707 36.38330078 142.35546875 C32.11840521 141.33052184 30.49847981 142.53833501 26.74389648 144.70507812 C26.13478928 145.0488147 25.52568207 145.39255127 24.89811707 145.7467041 C22.95376822 146.84951502 21.02687922 147.97939958 19.09936523 149.11132812 C17.82375107 149.84237996 16.54706538 150.57156546 15.26928711 151.29882812 C8.15152496 155.35219006 8.15152496 155.35219006 1.12036133 159.55273438 C0.1685498 160.11863281 -0.78326172 160.68453125 -1.76391602 161.26757812 C-2.58158447 161.77095703 -3.39925293 162.27433594 -4.24169922 162.79296875 C-7.73368874 163.94926124 -9.38216261 163.07798143 -12.71313477 161.61132812 C-14.96555513 160.47380395 -17.1922454 159.28448953 -19.39672852 158.05664062 C-20.01532242 157.7138205 -20.63391632 157.37100037 -21.27125549 157.01779175 C-23.23371468 155.92868637 -25.19217328 154.83260273 -27.15063477 153.73632812 C-28.46092895 153.00800876 -29.77147381 152.28014016 -31.08227539 151.55273438 C-41.14392195 145.96126627 -41.14392195 145.96126627 -43.5864563 144.45965576 C-47.38945806 141.98444026 -47.38945806 141.98444026 -51.77563477 142.29882812 C-52.74500977 142.73195313 -53.71438477 143.16507813 -54.71313477 143.61132812 C-57.6311859 144.5584149 -59.70736291 145.0154202 -62.61328125 143.84790039 C-64.76611987 142.65778307 -66.83234448 141.38041931 -68.90063477 140.04882812 C-70.4049465 139.1189906 -71.91015652 138.19060479 -73.41625977 137.26367188 C-74.14651367 136.80847168 -74.87676758 136.35327148 -75.62915039 135.88427734 C-79.23469344 133.68192244 -82.97035209 131.73120178 -86.70922852 129.76757812 C-88.71313477 128.61132812 -88.71313477 128.61132812 -90.71313477 126.61132812 C-90.94968505 123.93369197 -91.06542329 121.36278933 -91.08422852 118.68164062 C-91.09777122 117.50152908 -91.09777122 117.50152908 -91.11158752 116.2975769 C-91.12610639 114.63152887 -91.13498083 112.96542361 -91.13867188 111.29931641 C-91.15055882 108.75259963 -91.19971443 106.20831363 -91.25024414 103.66210938 C-91.25970945 102.04363163 -91.26694397 100.42513898 -91.27172852 98.80664062 C-91.30102699 97.66583542 -91.30102699 97.66583542 -91.33091736 96.50198364 C-91.2977999 92.61146424 -91.08846229 90.98976946 -88.30004883 88.17822266 C-87.44636719 87.66114746 -86.59268555 87.14407227 -85.71313477 86.61132812 C-85.06989258 86.19367188 -84.42665039 85.77601563 -83.76391602 85.34570312 C-78.93535699 82.61132812 -78.93535699 82.61132812 -76.71313477 82.61132812 C-76.73931885 81.63260742 -76.76550293 80.65388672 -76.79248047 79.64550781 C-76.88310722 76.00788308 -76.94042752 72.37035766 -76.98779297 68.73193359 C-77.01290924 67.15852061 -77.04700949 65.585224 -77.09033203 64.01220703 C-77.15111875 61.7480804 -77.17937059 59.48549791 -77.20141602 57.22070312 C-77.22722244 56.51951355 -77.25302887 55.81832397 -77.27961731 55.09588623 C-77.28166407 51.51683453 -77.04087077 49.95365298 -74.53027344 47.33129883 C-71.76460959 45.64275547 -69.01102829 44.00577601 -66.15063477 42.48242188 C-65.10649414 41.92232422 -64.06235352 41.36222656 -62.98657227 40.78515625 C-61.90633789 40.21216797 -60.82610352 39.63917969 -59.71313477 39.04882812 C-57.566786 37.90265739 -55.42093466 36.75555459 -53.27563477 35.60742188 C-52.32817383 35.1039624 -51.38071289 34.60050293 -50.40454102 34.08178711 C-48.57112487 33.08009394 -46.76633587 32.02458788 -44.99047852 30.92407227 C-42.71313477 29.61132812 -42.71313477 29.61132812 -40.71313477 29.61132812 C-40.82915039 28.598125 -40.94516602 27.58492187 -41.06469727 26.54101562 C-41.15854294 25.1896379 -41.2495381 23.83806012 -41.33813477 22.48632812 C-41.42192383 21.82117188 -41.50571289 21.15601563 -41.59204102 20.47070312 C-41.68969727 18.47851562 -41.68969727 18.47851562 -40.71313477 14.61132812 C-37.69091862 12.02827776 -34.24724023 10.39587643 -30.71313477 8.61132812 C-28.84830172 7.52691024 -26.98891434 6.43307509 -25.13500977 5.33007812 C-23.24565748 4.25492185 -21.35502455 3.182013 -19.46313477 2.11132812 C-18.03227539 1.26828125 -18.03227539 1.26828125 -16.57250977 0.40820312 C-15.64438477 -0.11257812 -14.71625977 -0.63335937 -13.76000977 -1.16992188 C-12.93339844 -1.64494141 -12.10678711 -2.11996094 -11.25512695 -2.609375 C-6.92458108 -3.9369876 -3.86498954 -1.97822915 0 0 Z M-18.02563477 10.36132812 C-19.26023437 11.06515625 -19.26023437 11.06515625 -20.51977539 11.78320312 C-24.80920572 14.00386077 -24.80920572 14.00386077 -27.71313477 17.61132812 C-24.83070053 19.32253578 -21.93039611 21.00084684 -19.02563477 22.67382812 C-17.80070312 23.40182617 -17.80070312 23.40182617 -16.55102539 24.14453125 C-15.7550293 24.59892578 -14.9590332 25.05332031 -14.13891602 25.52148438 C-13.41099854 25.9456665 -12.68308105 26.36984863 -11.93310547 26.80688477 C-8.41823695 28.08055592 -5.91218102 27.14076819 -2.58496094 25.67163086 C-1.89893799 25.29981689 -1.21291504 24.92800293 -0.50610352 24.54492188 C0.24477539 24.14208984 0.9956543 23.73925781 1.76928711 23.32421875 C2.53821289 22.90333984 3.30713867 22.48246094 4.09936523 22.04882812 C4.88762695 21.62408203 5.67588867 21.19933594 6.48803711 20.76171875 C8.42420304 19.71736258 10.35691891 18.66712042 12.28686523 17.61132812 C9.42298057 14.50542504 6.63163628 12.47645773 2.91186523 10.48632812 C1.53901367 9.73996094 1.53901367 9.73996094 0.13842773 8.97851562 C-0.80258789 8.52734375 -1.74360352 8.07617188 -2.71313477 7.61132812 C-3.62708008 7.1240625 -4.54102539 6.63679687 -5.48266602 6.13476562 C-10.55556944 5.31279578 -13.75940122 7.78858745 -18.02563477 10.36132812 Z M-32.71313477 23.61132812 C-33.8858016 31.14393219 -35.0799702 39.23198915 -32.71313477 46.61132812 C-27.98526563 52.20717004 -20.57345611 55.3673216 -13.71313477 57.61132812 C-13.05313477 57.61132812 -12.39313477 57.61132812 -11.71313477 57.61132812 C-11.71313477 50.02132812 -11.71313477 42.43132812 -11.71313477 34.61132812 C-14.99250977 32.79632813 -18.27188477 30.98132813 -21.65063477 29.11132812 C-23.2031897 28.24991211 -23.2031897 28.24991211 -24.78710938 27.37109375 C-25.59672119 26.92443359 -26.40633301 26.47777344 -27.24047852 26.01757812 C-28.07313232 25.55673828 -28.90578613 25.09589844 -29.76367188 24.62109375 C-31.49521741 23.53467244 -31.49521741 23.53467244 -32.71313477 23.61132812 Z M11.81420898 26.01757812 C11.00459717 26.46423828 10.19498535 26.91089844 9.36083984 27.37109375 C8.32580322 27.94537109 7.2907666 28.51964844 6.22436523 29.11132812 C2.94499023 30.92632812 -0.33438477 32.74132812 -3.71313477 34.61132812 C-3.71313477 42.20132813 -3.71313477 49.79132813 -3.71313477 57.61132812 C-0.45428477 56.30778813 2.2872934 55.14766982 5.27514648 53.44726562 C6.23094604 52.90658447 6.23094604 52.90658447 7.20605469 52.35498047 C7.99584717 51.9033252 8.78563965 51.45166992 9.59936523 50.98632812 C12.13624023 49.54257813 14.67311523 48.09882813 17.28686523 46.61132812 C17.28686523 39.02132812 17.28686523 31.43132812 17.28686523 23.61132812 C15.32043292 23.61132812 13.4821405 25.09444622 11.81420898 26.01757812 Z M-47.83422852 41.38476562 C-48.85194336 41.96226562 -49.8696582 42.53976563 -50.91821289 43.13476562 C-51.98491211 43.74578125 -53.05161133 44.35679687 -54.15063477 44.98632812 C-55.2134668 45.58960938 -56.27629883 46.19289063 -57.37133789 46.81445312 C-63.12359335 50.07991879 -63.12359335 50.07991879 -68.71313477 53.61132812 C-69.12992083 56.13028886 -69.12992083 56.13028886 -69.00610352 59.05664062 C-68.99643555 60.13300781 -68.98676758 61.209375 -68.97680664 62.31835938 C-68.95166992 63.44628906 -68.9265332 64.57421875 -68.90063477 65.73632812 C-68.88709961 66.87199219 -68.87356445 68.00765625 -68.85961914 69.17773438 C-68.82417795 71.989402 -68.77476993 74.80013229 -68.71313477 77.61132812 C-68.2168457 77.31097656 -67.72055664 77.010625 -67.20922852 76.70117188 C-63.82593842 74.80729981 -61.35615336 73.64125381 -57.43969727 73.45898438 C-51.85707219 75.18526781 -47.09636375 78.07757552 -42.08813477 81.04882812 C-40.05586197 82.23773331 -38.02206012 83.42402952 -35.98657227 84.60742188 C-35.09373535 85.1352124 -34.20089844 85.66300293 -33.28100586 86.20678711 C-30.80923772 87.55876297 -28.34924457 88.62478849 -25.71313477 89.61132812 C-25.60855828 94.77221581 -25.56989332 99.92793698 -25.59106445 105.08984375 C-25.5891231 106.84353583 -25.56948082 108.59730425 -25.53149414 110.35058594 C-25.23255048 124.98221709 -25.23255048 124.98221709 -28.87426758 128.98925781 C-31.53344727 130.54101562 -31.53344727 130.54101562 -34.17456055 131.57177734 C-37.08236347 132.76252796 -38.63373286 134.2908537 -40.71313477 136.61132812 C-37.06762018 138.67439188 -33.42166437 140.73667471 -29.77563477 142.79882812 C-28.75405273 143.37697266 -27.7324707 143.95511719 -26.67993164 144.55078125 C-24.65280323 145.69711265 -22.62238462 146.83764643 -20.58862305 147.97216797 C-18.75669126 149.01645308 -16.94457152 150.09688358 -15.16186523 151.22314453 C-14.39374512 151.69800293 -13.625625 152.17286133 -12.83422852 152.66210938 C-11.84894165 153.30079956 -11.84894165 153.30079956 -10.84375 153.95239258 C-6.85160341 155.18704408 -3.55229609 153.03593031 0 151.23852539 C0.90032959 150.72346436 1.80065918 150.20840332 2.72827148 149.67773438 C3.72407227 149.11119141 4.71987305 148.54464844 5.74584961 147.9609375 C6.77000977 147.37119141 7.79416992 146.78144531 8.84936523 146.17382812 C9.87739258 145.58794922 10.90541992 145.00207031 11.96459961 144.3984375 C16.43318929 141.84702628 20.88103417 139.26990809 25.28686523 136.61132812 C21.72691761 132.43225917 17.2002347 129.92573382 12.28686523 127.61132812 C11.62686523 127.61132812 10.96686523 127.61132812 10.28686523 127.61132812 C10.61686523 115.07132812 10.94686523 102.53132813 11.28686523 89.61132812 C24.09936523 82.73632812 24.09936523 82.73632812 28.12988281 80.57666016 C29.17813232 80.01317871 30.22638184 79.44969727 31.30639648 78.86914062 C32.91671753 78.00506592 32.91671753 78.00506592 34.55957031 77.12353516 C37.37995494 75.60823197 37.37995494 75.60823197 40.28686523 73.61132812 C45.76485352 72.67224442 47.72983063 74.83281082 53.28686523 77.61132812 C53.28686523 69.69132812 53.28686523 61.77132812 53.28686523 53.61132812 C46.60129864 49.79663373 46.60129864 49.79663373 39.91503906 45.9831543 C39.07481201 45.50338135 38.23458496 45.0236084 37.36889648 44.52929688 C36.51529541 44.04227295 35.66169434 43.55524902 34.78222656 43.0534668 C33.03438381 42.04333989 31.3062745 40.99864785 29.59423828 39.92895508 C27.44025157 38.44603094 27.44025157 38.44603094 25.28686523 38.61132812 C25.30749023 39.41957031 25.32811523 40.2278125 25.34936523 41.06054688 C25.32874023 42.12917969 25.30811523 43.1978125 25.28686523 44.29882812 C25.28686523 45.35457031 25.28686523 46.4103125 25.28686523 47.49804688 C23.75790338 52.25813516 20.5552739 53.36383336 16.28686523 55.61132812 C14.47998354 56.64753448 12.67403898 57.68537619 10.86889648 58.72460938 C8.94719771 59.79367729 7.02399541 60.86004664 5.09936523 61.92382812 C4.12805664 62.47361328 3.15674805 63.02339844 2.15600586 63.58984375 C0.74544922 64.36811523 0.74544922 64.36811523 -0.69360352 65.16210938 C-1.96046997 65.86847534 -1.96046997 65.86847534 -3.25292969 66.58911133 C-6.72641503 68.03234673 -9.2653474 68.18920843 -12.77441406 66.78857422 C-13.43868408 66.40781738 -14.1029541 66.02706055 -14.78735352 65.63476562 C-15.90605835 65.00332642 -15.90605835 65.00332642 -17.04736328 64.35913086 C-17.82394287 63.90610596 -18.60052246 63.45308105 -19.40063477 62.98632812 C-20.19848389 62.53136963 -20.99633301 62.07641113 -21.81835938 61.60766602 C-24.12404126 60.28789099 -26.42020595 58.95311225 -28.71313477 57.61132812 C-29.82430664 56.96292969 -30.93547852 56.31453125 -32.08032227 55.64648438 C-38.45890879 51.8655541 -38.45890879 51.8655541 -39.71313477 50.61132812 C-39.94741254 48.59538231 -40.12649601 46.57285412 -40.27563477 44.54882812 C-40.40131836 42.89173828 -40.40131836 42.89173828 -40.52954102 41.20117188 C-40.59012695 40.34652344 -40.65071289 39.491875 -40.71313477 38.61132812 C-43.61464734 38.61132812 -45.32001468 39.95296715 -47.83422852 41.38476562 Z M-63.94360352 83.79882812 C-64.74604492 84.25 -65.54848633 84.70117188 -66.37524414 85.16601562 C-67.20862305 85.64296875 -68.04200195 86.11992187 -68.90063477 86.61132812 C-70.16810547 87.32675781 -70.16810547 87.32675781 -71.46118164 88.05664062 C-73.54845308 89.23589003 -75.63219459 90.4209531 -77.71313477 91.61132812 C-77.71313477 92.27132812 -77.71313477 92.93132812 -77.71313477 93.61132812 C-74.66656034 95.34929183 -71.59892722 97.04612936 -68.52563477 98.73632812 C-67.66131836 99.23003906 -66.79700195 99.72375 -65.90649414 100.23242188 C-65.06538086 100.69003906 -64.22426758 101.14765625 -63.35766602 101.61914062 C-62.587854 102.04855957 -61.81804199 102.47797852 -61.02490234 102.92041016 C-57.90438297 103.85303977 -56.56766994 103.06595547 -53.71313477 101.61132812 C-53.07142334 101.29405762 -52.42971191 100.97678711 -51.76855469 100.64990234 C-51.1663208 100.32521973 -50.56408691 100.00053711 -49.94360352 99.66601562 C-49.28295898 99.31152344 -48.62231445 98.95703125 -47.94165039 98.59179688 C-47.26811523 98.22699219 -46.59458008 97.8621875 -45.90063477 97.48632812 C-44.86132812 96.92751953 -44.86132812 96.92751953 -43.80102539 96.35742188 C-42.1037864 95.44442435 -40.40828339 94.52820096 -38.71313477 93.61132812 C-39.8718573 90.13516051 -40.32836872 89.97577831 -43.42407227 88.34960938 C-44.17430664 87.95322266 -44.92454102 87.55683594 -45.69750977 87.1484375 C-46.48641602 86.74431641 -47.27532227 86.34019531 -48.08813477 85.92382812 C-48.86930664 85.50810547 -49.65047852 85.09238281 -50.45532227 84.6640625 C-55.78091218 81.88727803 -58.43692319 80.6744705 -63.94360352 83.79882812 Z M37.05639648 83.79882812 C36.25395508 84.25 35.45151367 84.70117188 34.62475586 85.16601562 C33.79137695 85.64296875 32.95799805 86.11992187 32.09936523 86.61132812 C30.83189453 87.32675781 30.83189453 87.32675781 29.53881836 88.05664062 C27.45154692 89.23589003 25.36780541 90.4209531 23.28686523 91.61132812 C23.28686523 92.27132812 23.28686523 92.93132812 23.28686523 93.61132812 C26.14278632 95.35318027 29.02385828 97.04829925 31.91186523 98.73632812 C32.72010742 99.23003906 33.52834961 99.72375 34.36108398 100.23242188 C39.0690428 103.04832572 39.0690428 103.04832572 44.38061523 103.17382812 C45.33967773 102.65820312 46.29874023 102.14257812 47.28686523 101.61132812 C47.90223145 101.30308105 48.51759766 100.99483398 49.15161133 100.67724609 C51.17898127 99.65342674 53.1705585 98.57845953 55.16186523 97.48632812 C55.85022461 97.11378906 56.53858398 96.74125 57.24780273 96.35742188 C58.92981321 95.44633287 60.6086696 94.52942497 62.28686523 93.61132812 C62.28686523 92.95132813 62.28686523 92.29132813 62.28686523 91.61132812 C59.35517078 89.93429007 56.41562 88.27153295 53.47436523 86.61132812 C52.64098633 86.134375 51.80760742 85.65742188 50.94897461 85.16601562 C50.1465332 84.71484375 49.3440918 84.26367188 48.51733398 83.79882812 C47.40974731 83.17041016 47.40974731 83.17041016 46.27978516 82.52929688 C42.53071626 80.80241962 40.41490379 81.89329207 37.05639648 83.79882812 Z M-82.71313477 99.61132812 C-82.71313477 107.20132813 -82.71313477 114.79132813 -82.71313477 122.61132812 C-77.79407227 125.33382812 -77.79407227 125.33382812 -72.77563477 128.11132812 C-71.74059814 128.68560547 -70.70556152 129.25988281 -69.63916016 129.8515625 C-68.82954834 130.29822266 -68.01993652 130.74488281 -67.18579102 131.20507812 C-65.9368103 131.89633789 -65.9368103 131.89633789 -64.66259766 132.6015625 C-62.93105212 133.68798381 -62.93105212 133.68798381 -61.71313477 133.61132812 C-61.71313477 126.02132812 -61.71313477 118.43132812 -61.71313477 110.61132812 C-64.25000977 109.16757813 -66.78688477 107.72382813 -69.40063477 106.23632812 C-70.58532349 105.55884521 -70.58532349 105.55884521 -71.79394531 104.86767578 C-72.43114502 104.50722168 -73.06834473 104.14676758 -73.72485352 103.77539062 C-74.69104614 103.2255249 -74.69104614 103.2255249 -75.67675781 102.66455078 C-77.94774341 101.48998756 -80.3392513 100.56088151 -82.71313477 99.61132812 Z M18.28686523 99.61132812 C17.11475133 107.14038044 15.9102735 115.23793283 18.28686523 122.61132812 C23.07120913 128.22465501 30.43454929 131.23296482 37.28686523 133.61132812 C37.61686523 133.61132812 37.94686523 133.61132812 38.28686523 133.61132812 C38.28686523 125.69132812 38.28686523 117.77132812 38.28686523 109.61132812 C35.17249023 107.96132812 32.05811523 106.31132812 28.84936523 104.61132812 C27.86653564 104.08925781 26.88370605 103.5671875 25.87109375 103.02929688 C25.1020874 102.62324219 24.33308105 102.2171875 23.54077148 101.79882812 C22.75001221 101.37988281 21.95925293 100.9609375 21.14453125 100.52929688 C19.48279578 99.53749243 19.48279578 99.53749243 18.28686523 99.61132812 Z M-38.96704102 101.79882812 C-39.73604736 102.20488281 -40.50505371 102.6109375 -41.29736328 103.02929688 C-42.28019287 103.55136719 -43.26302246 104.0734375 -44.27563477 104.61132812 C-47.39000977 106.26132813 -50.50438477 107.91132813 -53.71313477 109.61132812 C-53.71313477 117.53132813 -53.71313477 125.45132813 -53.71313477 133.61132812 C-51.34125977 132.35320312 -48.96938477 131.09507812 -46.52563477 129.79882812 C-45.78804932 129.40848389 -45.05046387 129.01813965 -44.29052734 128.6159668 C-43.69393311 128.29861572 -43.09733887 127.98126465 -42.48266602 127.65429688 C-41.57931519 127.17512817 -41.57931519 127.17512817 -40.65771484 126.6862793 C-40.01600342 126.33154541 -39.37429199 125.97681152 -38.71313477 125.61132812 C-37.82045898 125.18400391 -36.9277832 124.75667969 -36.00805664 124.31640625 C-33.48390676 122.82539327 -33.48390676 122.82539327 -33.14550781 120.15942383 C-33.17169189 119.21156006 -33.19787598 118.26369629 -33.22485352 117.28710938 C-33.2409668 116.25908203 -33.25708008 115.23105469 -33.27368164 114.171875 C-33.31557617 113.10001953 -33.3574707 112.02816406 -33.40063477 110.92382812 C-33.42319336 109.84037109 -33.44575195 108.75691406 -33.46899414 107.640625 C-33.52797687 104.96280908 -33.61023169 102.28775786 -33.71313477 99.61132812 C-35.61538305 99.61132812 -37.32749673 100.93019539 -38.96704102 101.79882812 Z M62.06811523 101.76367188 C61.21862305 102.21033203 60.36913086 102.65699219 59.49389648 103.1171875 C58.60057617 103.58962891 57.70725586 104.06207031 56.78686523 104.54882812 C55.89354492 105.01740234 55.00022461 105.48597656 54.07983398 105.96875 C49.92880244 107.92448331 49.92880244 107.92448331 46.28686523 110.61132812 C46.19972692 112.3190517 46.17986516 114.03031461 46.18920898 115.74023438 C46.19243164 116.77470703 46.1956543 117.80917969 46.19897461 118.875 C46.21154297 120.50791992 46.21154297 120.50791992 46.22436523 122.17382812 C46.22887695 123.26630859 46.23338867 124.35878906 46.23803711 125.484375 C46.24986697 128.19341308 46.2663498 130.90234412 46.28686523 133.61132812 C48.85063287 132.34300124 51.41288736 131.07176448 53.97436523 129.79882812 C54.6955957 129.44240234 55.41682617 129.08597656 56.15991211 128.71875 C57.21855469 128.1918457 57.21855469 128.1918457 58.29858398 127.65429688 C59.26477661 127.17512817 59.26477661 127.17512817 60.25048828 126.6862793 C60.92249268 126.33154541 61.59449707 125.97681152 62.28686523 125.61132812 C63.18405273 125.18400391 64.08124023 124.75667969 65.00561523 124.31640625 C67.51578776 122.82265032 67.51578776 122.82265032 67.85449219 120.15942383 C67.82830811 119.21156006 67.80212402 118.26369629 67.77514648 117.28710938 C67.7590332 116.25908203 67.74291992 115.23105469 67.72631836 114.171875 C67.68442383 113.10001953 67.6425293 112.02816406 67.59936523 110.92382812 C67.57680664 109.84037109 67.55424805 108.75691406 67.53100586 107.640625 C67.47202313 104.96280908 67.38976831 102.28775786 67.28686523 99.61132812 C65.39496678 99.61132812 63.7027941 100.90385363 62.06811523 101.76367188 Z " fill="#6AB3C2" transform="translate(332.713134765625,132.388671875)"/>
<path d="M0 0 C5.72499289 0.7467382 11.34644079 1.83656659 17 3 C17.85722656 3.12117188 18.71445312 3.24234375 19.59765625 3.3671875 C22.40386414 4.10638372 23.3855859 4.99248464 25.3125 7.125 C28.3135397 10.30674747 31.43885442 13.18537485 34.75390625 16.03515625 C38.37062962 19.19900295 41.87162588 22.48961949 45.38671875 25.765625 C47.91462005 28.05985815 47.91462005 28.05985815 50.78515625 29.6328125 C53 31 53 31 53.75 33.625 C53.8325 34.73875 53.915 35.8525 54 37 C54.14695312 37.7425 54.29390625 38.485 54.4453125 39.25 C54.86573441 41.57378656 55.13129582 43.64120274 55 46 C53.0625 48.1875 53.0625 48.1875 50 50 C48.59682338 51.07380501 47.20132388 52.15769508 45.8125 53.25 C42.25247525 56 42.25247525 56 40 56 C43.99890716 64.33522212 48.26633205 72.18731741 53.203125 80.00390625 C55.21958196 83.36612906 56.83287989 86.76420709 58.30859375 90.390625 C58.88660897 92.01013393 58.88660897 92.01013393 60 93 C60 96.44544848 59.92865157 98.99578885 57.51171875 101.609375 C53.02029018 105.03324775 53.02029018 105.03324775 50.08203125 104.9375 C43.72823888 102.07650531 41.06483961 95.83172137 38.125 89.9375 C37.25733188 88.24109968 36.38753491 86.54578655 35.515625 84.8515625 C35.09216797 84.02688477 34.66871094 83.20220703 34.23242188 82.35253906 C31.67097001 77.46304813 28.84915339 72.72657565 26 68 C22.18186553 68.27540704 22.18186553 68.27540704 19 70 C18.85357447 72.12071721 18.77253153 74.246008 18.71875 76.37109375 C18.68136719 77.66724609 18.64398438 78.96339844 18.60546875 80.29882812 C18.56977255 81.67837155 18.53462275 83.05792922 18.5 84.4375 C18.43240524 87.12391794 18.35864616 89.8099131 18.28125 92.49609375 C18.23581055 94.29324829 18.23581055 94.29324829 18.18945312 96.12670898 C18 99 18 99 17 101 C13.54670274 102.72664863 10.84169158 103.21952523 7 103 C7 103.66 7 104.32 7 105 C2.125 103.25 2.125 103.25 1 101 C-0.1257709 93.71723519 -0.0434439 86.35070158 0 79.00390625 C0.03043339 68.20107737 -0.12783472 57.40846652 -0.37231445 46.60864258 C-0.43848247 43.64347285 -0.49767876 40.67821146 -0.55664062 37.71289062 C-0.59854103 35.79165752 -0.64084347 33.87043313 -0.68359375 31.94921875 C-0.70030624 31.08036545 -0.71701874 30.21151215 -0.73423767 29.31632996 C-0.85032325 24.48994216 -1.18563071 19.76902292 -1.82556152 14.98251343 C-2.0990244 11.87457623 -1.60950086 8.99426949 -1.0625 5.9375 C-0.86785156 4.81214844 -0.67320312 3.68679688 -0.47265625 2.52734375 C-0.23869141 1.27630859 -0.23869141 1.27630859 0 0 Z M17 23 C17 31.91 17 40.82 17 50 C21.89980796 49.02003841 23.8738715 48.02942873 27.8125 45.1875 C28.78832031 44.50042969 29.76414062 43.81335938 30.76953125 43.10546875 C31.87361328 42.06326172 31.87361328 42.06326172 33 41 C33.42539573 36.93071925 33.42539573 36.93071925 30.76953125 34.30859375 C29.79409829 33.34112351 28.80793523 32.38437741 27.8125 31.4375 C27.08836914 30.71530273 27.08836914 30.71530273 26.34960938 29.97851562 C23.34800369 27.04943196 20.6680205 25.2008123 17 23 Z " fill="#64B0C0" transform="translate(341,505)"/>
<path d="M0 0 C10.12284483 0.49784483 10.12284483 0.49784483 11.8125 2.1875 C13.19590529 10.94906684 9.1062521 17.20188398 5.13085938 24.66601562 C2.58411371 29.53690252 0.19916914 34.48670301 -2.1875 39.4375 C-2.70151367 40.50355469 -3.21552734 41.56960938 -3.74511719 42.66796875 C-8.0133 51.62219842 -11.7482818 60.72395611 -15.30078125 69.98046875 C-16.57368171 73.14870116 -17.99680431 76.24395369 -19.43554688 79.33984375 C-20.31315158 81.16377555 -20.31315158 81.16377555 -20.1875 83.1875 C-19.54200195 83.17702637 -18.89650391 83.16655273 -18.23144531 83.15576172 C-15.30016998 83.11412728 -12.36895696 83.08815025 -9.4375 83.0625 C-8.42171875 83.04574219 -7.4059375 83.02898437 -6.359375 83.01171875 C-5.3796875 83.00527344 -4.4 82.99882813 -3.390625 82.9921875 C-2.48989258 82.98171387 -1.58916016 82.97124023 -0.66113281 82.96044922 C2.06843507 83.21099187 3.61218137 83.54066231 5.8125 85.1875 C7.28233122 89.14578967 6.56764897 92.04040542 5.375 96 C5.08753906 96.97582031 4.80007813 97.95164062 4.50390625 98.95703125 C4.27574219 99.69308594 4.04757812 100.42914062 3.8125 101.1875 C-2.23745377 101.52293244 -8.28793434 101.84402524 -14.33935547 102.15185547 C-16.39783184 102.25859128 -18.45610911 102.36924207 -20.51416016 102.48388672 C-23.47254506 102.64800358 -26.43136044 102.79802462 -29.390625 102.9453125 C-30.31055237 102.99938263 -31.23047974 103.05345276 -32.17828369 103.10916138 C-33.0388739 103.14935394 -33.89946411 103.18954651 -34.78613281 103.23095703 C-35.91864471 103.29091354 -35.91864471 103.29091354 -37.07403564 103.3520813 C-39.59589798 103.15569692 -41.07135386 102.56649023 -43.1875 101.1875 C-45.21852636 97.66705431 -46.41076171 95.44334715 -45.6875 91.375 C-44.50629945 88.86494883 -43.27943779 86.39995814 -42.01953125 83.9296875 C-38.92578879 77.7528552 -36.10504556 71.45821038 -33.28369141 65.1541748 C-31.74054837 61.7082228 -30.18862103 58.26623289 -28.63671875 54.82421875 C-28.33470551 54.15423859 -28.03269226 53.48425842 -27.7215271 52.79397583 C-25.40589725 47.66145656 -23.0727745 42.53803729 -20.6875 37.4375 C-20.1409375 36.26703125 -19.594375 35.0965625 -19.03125 33.890625 C-16.55544581 28.91803523 -13.84744731 24.06407008 -11.1875 19.1875 C-20.7575 19.1875 -30.3275 19.1875 -40.1875 19.1875 C-43.5625 12.4375 -43.5625 12.4375 -43.875 8.3125 C-43.94074219 7.53132812 -44.00648438 6.75015625 -44.07421875 5.9453125 C-44.11160156 5.36523438 -44.14898437 4.78515625 -44.1875 4.1875 C-37.60684912 -0.19960059 -28.88463181 1.17018061 -21.328125 1.921875 C-15.98049453 2.37416215 -10.53934767 2.65878211 -5.1875 2.1875 C-3.1875 0.1875 -3.1875 0.1875 0 0 Z " fill="#64B0C0" transform="translate(256.1875,504.8125)"/>
<path d="M0 0 C2.33934509 0.75938741 4.55978072 1.53615624 6.7890625 2.57421875 C7.47484375 2.8784375 8.160625 3.18265625 8.8671875 3.49609375 C10.5390625 4.82421875 10.5390625 4.82421875 11.47265625 7.19921875 C11.56009665 10.65568626 10.64671526 11.52710311 8.3515625 14.07421875 C0.27761318 23.57630972 -6.91316458 33.88686273 -13.3359375 44.57421875 C-13.99335938 45.6621875 -14.65078125 46.75015625 -15.328125 47.87109375 C-16.72799539 50.72145269 -16.72799539 50.72145269 -15.9140625 53.421875 C-14.28778446 56.11047983 -12.4992657 58.23155575 -10.3359375 60.51171875 C-2.38751825 69.10769292 4.57719396 78.42238104 11.5390625 87.82421875 C12.08175781 88.54222656 12.62445313 89.26023437 13.18359375 90 C15.35808845 92.92648134 16.80186857 95.26111475 17.5390625 98.82421875 C13.299954 102.60255459 9.45920527 102.80523243 3.92578125 102.6875 C-2.10554961 101.15010194 -4.99445908 96.3335923 -8.34082031 91.43164062 C-9.9799707 89.07938122 -11.81661616 86.90301914 -13.6484375 84.69921875 C-16.83798102 80.69790764 -19.76502689 76.55924695 -22.66796875 72.34765625 C-28.11469899 64.62283513 -28.11469899 64.62283513 -34.69921875 57.91015625 C-36.4609375 55.82421875 -36.4609375 55.82421875 -36.86328125 52.88671875 C-35.54767151 42.87275722 -27.00190421 33.16330987 -21.4609375 24.82421875 C-20.79239746 23.81439941 -20.79239746 23.81439941 -20.11035156 22.78417969 C-4.73498529 -0.33821324 -4.73498529 -0.33821324 0 0 Z " fill="#66B1C1" transform="translate(308.4609375,506.17578125)"/>
<path d="M0 0 C5.55723016 0.95608261 10.41351756 2.65785019 15 6 C20.62236145 14.71723932 19.15839152 28.57030513 19.125 38.4375 C19.13080078 40.19223633 19.13080078 40.19223633 19.13671875 41.98242188 C19.13542969 43.10068359 19.13414062 44.21894531 19.1328125 45.37109375 C19.13168457 46.38099365 19.13055664 47.39089355 19.12939453 48.43139648 C19 51 19 51 18 54 C17.93197033 55.72795352 17.91504355 57.45835365 17.9375 59.1875 C17.94652344 60.08855469 17.95554687 60.98960937 17.96484375 61.91796875 C17.97644531 62.60503906 17.98804688 63.29210937 18 64 C14.22777911 65.75163456 11.333361 66.22490027 7.1875 66.125 C6.21167969 66.10695313 5.23585938 66.08890625 4.23046875 66.0703125 C3.49441406 66.04710937 2.75835937 66.02390625 2 66 C0.30043176 61.57919885 -0.22030973 58.01708804 -0.125 53.29296875 C-0.10840332 51.99512451 -0.09180664 50.69728027 -0.07470703 49.36010742 C-0.06231995 48.6788681 -0.04993286 47.99762878 -0.03717041 47.29574585 C0.1804757 34.95120866 -0.14173266 22.82298604 -1.46484375 10.5300293 C-1.56152344 9.57523682 -1.65820312 8.62044434 -1.7578125 7.63671875 C-1.8520752 6.80873779 -1.94633789 5.98075684 -2.04345703 5.12768555 C-2 3 -2 3 0 0 Z " fill="#66B0C0" transform="translate(414,541)"/>
<path d="M0 0 C2.50055732 1.84910952 3.62174463 3.79720441 5.13671875 6.50390625 C6.78556193 9.66226126 6.78556193 9.66226126 8.94921875 12.44140625 C8.71178374 19.56445651 8.71178374 19.56445651 5.44921875 23.31640625 C4.62421875 24.01765625 3.79921875 24.71890625 2.94921875 25.44140625 C2.61921875 26.10140625 2.28921875 26.76140625 1.94921875 27.44140625 C-0.30078125 27.69140625 -0.30078125 27.69140625 -3.05078125 27.44140625 C-6.24667453 24.68277805 -8.47308601 21.54665195 -10.73828125 18.00390625 C-11.34027344 17.07707031 -11.94226563 16.15023437 -12.5625 15.1953125 C-14.00247982 12.53078292 -14.64498728 10.42263931 -15.05078125 7.44140625 C-13.63609814 6.48014722 -12.21894485 5.522523 -10.80078125 4.56640625 C-10.011875 4.03273438 -9.22296875 3.4990625 -8.41015625 2.94921875 C-7.6315625 2.45164062 -6.85296875 1.9540625 -6.05078125 1.44140625 C-5.3753125 1.00570312 -4.69984375 0.57 -4.00390625 0.12109375 C-2.05078125 -0.55859375 -2.05078125 -0.55859375 0 0 Z " fill="#6AB3C2" transform="translate(309.05078125,545.55859375)"/>
<path d="M0 0 C3.03146471 1.18124669 4.78155464 3.40997096 6.96484375 5.765625 C7.62484375 6.425625 8.28484375 7.085625 8.96484375 7.765625 C8.64779945 11.29735099 6.97113627 13.25113716 4.65234375 15.828125 C4.05808594 16.49972656 3.46382813 17.17132812 2.8515625 17.86328125 C0.96837667 19.76206282 -0.75977596 21.35621469 -3.03515625 22.765625 C-8.37424734 22.59339626 -12.49192233 21.75751075 -17.03515625 18.765625 C-17.9453125 16.96875 -17.9453125 16.96875 -18.03515625 14.765625 C-14.75127073 9.91084232 -6.608757 -0.76108526 0 0 Z " fill="#6BB3C2" transform="translate(426.03515625,507.234375)"/>
<path d="M0 0 C0.66 0.33 1.32 0.66 2 1 C1.35546875 1.52078125 0.7109375 2.0415625 0.046875 2.578125 C-2.59985676 5.70975418 -2.58790924 7.69773096 -2.75 11.75 C-2.80671875 12.92046875 -2.8634375 14.0909375 -2.921875 15.296875 C-2.94765625 16.18890625 -2.9734375 17.0809375 -3 18 C-3.33 18 -3.66 18 -4 18 C-4.1079859 15.56131832 -4.18726589 13.12740867 -4.25 10.6875 C-4.28351563 9.99720703 -4.31703125 9.30691406 -4.3515625 8.59570312 C-4.390625 6.57421875 -4.390625 6.57421875 -4 3 C-1.984375 1.01953125 -1.984375 1.01953125 0 0 Z " fill="#9ECDD7" transform="translate(296,144)"/>
</svg>
